<svg width="26" height="32" viewBox="0 0 26 32" fill="none" xmlns="http://www.w3.org/2000/svg">
<g opacity="0.97" clip-path="url(#clip0_2302_1758)">
<path d="M22.2486 15.3824C23.5212 13.7445 24.212 11.7169 24.2088 9.62899C24.2088 4.49297 20.1187 0.5 15.0727 0.5H3.97852V1.66161H14.8267C19.2863 1.66161 22.9016 5.17486 22.9016 9.71204C22.9043 11.4759 22.3467 13.1935 21.312 14.6087L22.2486 15.3824Z" fill="#32C6B4"/>
<path d="M21.0102 14.4236C22.2243 13.1679 22.9038 11.4764 22.9017 9.7149C22.9017 7.93211 22.2057 6.22233 20.9667 4.96161C19.7278 3.70089 18.0473 2.99248 16.295 2.99219H6.91406V4.15489H16.5389C17.2461 4.15446 17.9464 4.29581 18.5999 4.57086C19.2534 4.84591 19.8473 5.24927 20.3475 5.7579C20.8477 6.26652 21.2445 6.87044 21.5153 7.53515C21.786 8.19986 21.9254 8.91233 21.9254 9.63185C21.9263 10.4308 21.755 11.2202 21.4235 11.9444C21.0921 12.6687 20.6086 13.3102 20.0071 13.8237L21.0102 14.4236Z" fill="#4A8C89"/>
<path d="M19.2021 13.5471C20.7455 12.8609 21.927 11.366 21.927 9.63175C21.927 7.24842 19.7015 5.31641 17.359 5.31641H9.19922V5.97972H17.2752C19.2085 5.97972 21.1086 7.57844 21.1086 9.5487C21.1086 11.1452 19.8648 12.4992 18.3622 12.9527L19.2021 13.5471Z" fill="#004F32"/>
<path d="M0.714844 30.0469H2.50963V31.2085H0.714844V30.0469Z" fill="#4A8C8A"/>
<path d="M2.50977 27.7227H9.68782V28.5521H2.50977V27.7227Z" fill="#5AABA6"/>
<path d="M2.50977 22.5781H10.1776V23.2425H2.50977V22.5781Z" fill="#4B8F8E"/>
<path d="M11.6465 22.5781H16.5411V23.2425H11.6465V22.5781Z" fill="#7CC6C7"/>
<path d="M3.97852 20.2539H6.58852V20.9183H3.97852V20.2539Z" fill="#5AB5B4"/>
<path d="M8.05664 20.2539H16.5397V20.9183H8.05664V20.2539Z" fill="#428989"/>
<path d="M10.8281 9.79688H16.3747V10.4613H10.8281V9.79688Z" fill="#549391"/>
<path d="M4.30469 5.31641H7.40447V5.98081H4.30469V5.31641Z" fill="#306563"/>
<path d="M5.12109 7.80078H16.5407V8.46518H5.12109V7.80078Z" fill="#64B9B9"/>
<path d="M2.18164 9.79688H9.19644V10.4613H2.18164V9.79688Z" fill="#7FD6D5"/>
<path d="M4.14258 29.8796V31.0413H16.5406C21.5888 31.0413 25.6767 27.0461 25.6767 21.9123C25.6767 19.4471 24.7142 17.0828 23.0008 15.3397C21.2875 13.5965 18.9637 12.6172 16.5406 12.6172H8.54737V13.6138H16.2968C18.4385 13.6141 20.4924 14.4799 22.0067 16.0207C23.521 17.5616 24.3717 19.6513 24.3717 21.8303C24.3717 26.3686 20.7564 29.8807 16.2968 29.8807L4.14258 29.8796Z" fill="#32C6B4"/>
<path d="M6.09961 15.1094V16.2721H18.009C18.716 16.2719 19.4161 16.4135 20.0694 16.6887C20.7226 16.9639 21.3162 17.3673 21.8162 17.8759C22.3162 18.3845 22.7128 18.9883 22.9834 19.6528C23.254 20.3174 23.3933 21.0297 23.3933 21.749C23.3933 23.2019 22.826 24.5953 21.8163 25.6226C20.8065 26.6499 19.437 27.2271 18.009 27.2271H10.9942V28.5548H17.7609C18.6285 28.5548 19.4877 28.3809 20.2894 28.043C21.091 27.7052 21.8193 27.21 22.4328 26.5857C23.0463 25.9614 23.533 25.2203 23.8649 24.4047C24.1969 23.589 24.3676 22.7149 24.3675 21.8321C24.3675 20.0493 23.6715 18.3395 22.4325 17.0788C21.1936 15.8181 19.5132 15.1097 17.7609 15.1094H6.09961Z" fill="#4A8C89"/>
<path d="M9.52362 17.5977V18.261H18.7414C20.6747 18.261 22.5747 19.8597 22.5747 21.8299C22.5747 23.7969 20.679 25.3989 18.7414 25.3989H0.550781V26.2283H18.823C21.1655 26.2283 23.391 24.2963 23.391 21.913C23.391 19.5297 21.1655 17.5977 18.823 17.5977H9.52362Z" fill="#004F32"/>
</g>
<defs>
<clipPath id="clip0_2302_1758">
<rect width="25.1237" height="30.7068" fill="white" transform="translate(0.550781 0.5)"/>
</clipPath>
</defs>
</svg>
