<svg width="64" height="58" viewBox="0 0 64 58" fill="none" xmlns="http://www.w3.org/2000/svg">
<g id="SVGRepo_iconCarrier">
<g id="briefcase simple">
<path id="Vector" d="M2.0012 18.1875V50.9006C2.0012 53.9144 4.44436 56.3576 7.45815 56.3576H56.5421C59.5559 56.3576 61.9991 53.9144 61.9991 50.9006V18.1875C61.9991 15.1737 59.5559 12.7305 56.5421 12.7305H7.45815C4.44436 12.7305 2.0012 15.1737 2.0012 18.1875ZM2.0012 18.1875C1.98599 17.4613 2.1159 16.7394 2.38332 16.0641C2.65074 15.3888 3.05028 14.7736 3.55853 14.2548C4.06677 13.7359 4.6735 13.3237 5.34312 13.0423C6.01275 12.7609 6.73181 12.6161 7.45815 12.6163H56.5421C57.9894 12.6163 59.3774 13.1912 60.4008 14.2146C61.4241 15.2379 61.9991 16.6259 61.9991 18.0732V20.9303C62.018 22.3741 61.7495 23.8073 61.2092 25.1464C60.6688 26.4855 59.8675 27.7037 58.8517 28.73C57.836 29.7564 56.6262 30.5704 55.2929 31.1247C53.9595 31.6789 52.5291 31.9623 51.0852 31.9584H12.9151C11.4808 31.9622 10.0599 31.6825 8.73407 31.1353C7.40823 30.5882 6.2036 29.7844 5.1894 28.7702C4.1752 27.756 3.37143 26.5514 2.82429 25.2256C2.27715 23.8997 1.99743 22.4788 2.0012 21.0445L2.0012 18.1875ZM32.0001 29.1014V34.5583M42.914 12.7305H21.0862L23.829 1.84521H40.1713L42.914 12.7305Z" stroke="url(#paint0_linear_105_2632)" stroke-width="3" stroke-miterlimit="10" stroke-linecap="square"/>
</g>
</g>
<defs>
<linearGradient id="paint0_linear_105_2632" x1="62.339" y1="13.102" x2="1.72146" y2="9.4896" gradientUnits="userSpaceOnUse">
<stop stop-color="#F2F230"/>
<stop offset="1" stop-color="#888827"/>
</linearGradient>
</defs>
</svg>
