<svg width="24" height="24" viewBox="0 0 24 24" fill="none" xmlns="http://www.w3.org/2000/svg">
<path id="Vector" d="M0.121094 11.9883C0.13295 5.4252 5.42142 0.120117 12.0011 0.120117C18.493 0.120117 23.8812 5.36585 23.8812 12.0002C23.8812 18.492 18.6354 23.8802 12.0011 23.8802C5.50924 23.8802 0.121094 18.6345 0.121094 11.9883ZM2.92199 11.9408C2.89823 12.0595 2.94573 12.1782 3.01693 12.2731C3.08814 12.3443 3.20682 12.3918 3.3255 12.3918C3.44418 12.3918 3.53913 12.3681 3.63407 12.2969C3.75275 12.2256 3.77649 12.107 3.77649 11.9883C3.80025 11.8696 3.77649 11.7509 3.68154 11.656C3.5866 11.6085 3.49165 11.5373 3.37297 11.5373C3.25429 11.5135 3.13561 11.5848 3.08814 11.6322C2.9932 11.7035 2.92199 11.7984 2.92199 11.9408ZM4.67848 8.11927C4.67848 8.26169 4.77342 8.38037 4.89208 8.45157C5.03452 8.54652 5.1532 8.57025 5.29561 8.54652C5.46177 8.49905 5.58045 8.42784 5.65165 8.33289C5.7466 8.19048 5.77033 8.02433 5.7466 7.90565C5.72286 7.76323 5.62792 7.64453 5.4855 7.54958C5.36682 7.47837 5.22441 7.4309 5.10573 7.47837C4.93957 7.50213 4.82089 7.57332 4.74969 7.71573C4.67848 7.83444 4.65474 8.00059 4.67848 8.11927ZM4.70221 15.7386C4.65474 15.881 4.65474 15.9997 4.72595 16.1659C4.79716 16.2846 4.91584 16.3795 5.03452 16.427C5.1532 16.4745 5.31935 16.4745 5.46177 16.4032C5.58045 16.332 5.69913 16.2134 5.7466 16.0947C5.77036 15.9285 5.77036 15.7861 5.69913 15.6674C5.62792 15.5487 5.53297 15.4301 5.39056 15.3826C5.24814 15.3351 5.12946 15.3351 4.96331 15.4301C4.82089 15.5013 4.74969 15.5962 4.70219 15.7386H4.70221ZM4.98705 11.9171C4.96329 12.0832 5.01078 12.2731 5.12946 12.3918C5.27188 12.5579 5.41429 12.6054 5.60418 12.6054C5.77033 12.6292 5.93651 12.5579 6.05519 12.4393C6.19761 12.3206 6.26879 12.1544 6.29255 11.9883C6.29255 11.8459 6.24508 11.6322 6.10266 11.5373C6.00772 11.3949 5.81781 11.3237 5.65165 11.2999C5.46177 11.2999 5.31935 11.3711 5.17693 11.4661C5.08199 11.6085 4.98705 11.7272 4.98705 11.9171ZM7.00463 9.6384C7.0521 9.852 7.17078 9.99444 7.33693 10.1131C7.50309 10.2318 7.693 10.2793 7.90662 10.2318C8.09651 10.1843 8.2864 10.0656 8.40508 9.89949C8.52376 9.70961 8.54749 9.54345 8.50002 9.35357C8.45255 9.13992 8.35761 8.97377 8.16772 8.85509C8.0253 8.73641 7.81168 8.68893 7.59805 8.73641C7.40814 8.78388 7.21825 8.90256 7.09957 9.06871C6.98089 9.2586 6.98089 9.42477 7.00463 9.6384ZM7.0521 14.172C6.98089 14.3857 6.98089 14.5993 7.09957 14.7654C7.17078 14.9553 7.33693 15.074 7.52682 15.1452C7.71673 15.2164 7.90662 15.2164 8.09651 15.0977C8.33387 15.0028 8.40508 14.8604 8.47629 14.6705C8.57123 14.4569 8.54749 14.267 8.42881 14.1008C8.35761 13.9347 8.21519 13.7685 8.0253 13.6973C7.78794 13.6261 7.59805 13.6736 7.40814 13.7448C7.24199 13.8397 7.09957 13.9584 7.0521 14.172ZM7.26573 4.2977C7.21825 4.41641 7.21825 4.53506 7.28949 4.60629C7.33693 4.74871 7.40814 4.79618 7.52685 4.81989C7.64553 4.86739 7.74045 4.86739 7.88289 4.79618C8.00157 4.74871 8.07277 4.6775 8.07277 4.58256C8.09651 4.46388 8.09651 4.3452 8.07277 4.22649C8.0253 4.13155 7.93036 4.08408 7.81165 4.03661C7.693 3.98913 7.57429 3.98913 7.47935 4.06037C7.40814 4.10781 7.3132 4.15529 7.26575 4.29773L7.26573 4.2977ZM7.28949 19.5602C7.3132 19.7026 7.38441 19.7975 7.45561 19.845C7.55056 19.8925 7.66926 19.94 7.78794 19.8925C7.93036 19.8687 8.0253 19.8213 8.07277 19.7263C8.12025 19.6314 8.16772 19.5127 8.12025 19.4178C8.09649 19.2754 8.07277 19.1804 7.95409 19.1329C7.83541 19.038 7.74047 19.038 7.64553 19.0617C7.50309 19.0855 7.40817 19.1567 7.36067 19.2516C7.26573 19.3703 7.26573 19.4652 7.28946 19.5602H7.28949ZM7.88289 11.8696C7.88289 12.2494 8.00157 12.5579 8.21519 12.7953C8.45255 13.0802 8.85606 13.2463 9.16463 13.2463C9.49696 13.2226 9.78179 13.1039 10.0429 12.8665C10.2802 12.6292 10.3989 12.3206 10.3989 12.012C10.4464 11.6322 10.3515 11.3474 10.0904 11.1101C9.87673 10.8727 9.59188 10.7303 9.23584 10.7065C8.85606 10.659 8.57123 10.7777 8.33387 10.9914C8.07275 11.2287 7.90662 11.5136 7.88289 11.8696ZM8.19145 6.17289C8.14398 6.36278 8.14398 6.52893 8.23893 6.69509C8.33387 6.8375 8.42881 6.95621 8.6187 7.02739C8.78485 7.07486 8.97474 7.05115 9.09342 6.97992C9.2596 6.90871 9.37828 6.79003 9.44949 6.62388C9.47322 6.43399 9.47322 6.26784 9.40201 6.10169C9.33081 5.95925 9.2121 5.84057 9.02221 5.76936C8.83233 5.72189 8.68991 5.74562 8.54749 5.81683C8.38134 5.88804 8.26266 6.00674 8.19145 6.17289ZM8.21519 17.6376C8.23893 17.8274 8.33387 17.9461 8.47629 18.0411C8.64244 18.1597 8.80859 18.1835 8.99848 18.136C9.14089 18.1122 9.28333 18.0173 9.37828 17.8512C9.47322 17.7325 9.49696 17.5663 9.47322 17.3765C9.44946 17.2103 9.33081 17.0679 9.2121 16.9492C9.04595 16.878 8.90353 16.8542 8.73738 16.878C8.54749 16.878 8.40508 17.0204 8.31013 17.1628C8.19145 17.3052 8.16772 17.4951 8.21519 17.6376ZM9.37828 14.6942C9.42575 15.0503 9.61564 15.2876 9.92421 15.525C10.1141 15.6199 10.3515 15.7149 10.6125 15.7149C10.8024 15.7149 11.0161 15.6674 11.206 15.5725C11.3959 15.4775 11.562 15.2876 11.6807 15.1452C11.8468 14.8604 11.9418 14.5518 11.8468 14.1958C11.7519 13.8635 11.5857 13.6024 11.3009 13.3887C11.0873 13.2701 10.8499 13.1988 10.6125 13.1988C10.3752 13.1988 10.1616 13.2463 10.0191 13.3175C9.80553 13.4362 9.66311 13.6024 9.54443 13.7448C9.35454 14.0533 9.30707 14.3857 9.37828 14.6942ZM9.37828 9.04497C9.28333 9.35357 9.30707 9.68587 9.47322 10.0182C9.56817 10.2318 9.71058 10.3979 9.92418 10.5167C10.1378 10.659 10.3752 10.7065 10.6125 10.7065C10.8024 10.7065 11.0161 10.659 11.1585 10.5878C11.4908 10.4217 11.6807 10.1606 11.7756 9.852C11.9181 9.51972 11.8706 9.16368 11.7282 8.87882C11.6095 8.66522 11.4433 8.47531 11.2772 8.35663C11.0636 8.26169 10.8499 8.19048 10.6125 8.19048C10.3752 8.19048 10.209 8.23795 10.0191 8.33289C9.71058 8.47531 9.47322 8.73641 9.37828 9.04497ZM11.2534 16.8542C11.2297 17.0441 11.3009 17.2103 11.4433 17.3764C11.562 17.5426 11.7519 17.6138 11.9655 17.6376C12.1791 17.6613 12.3453 17.5663 12.4877 17.4476C12.6539 17.329 12.7251 17.1391 12.7488 16.9254C12.7726 16.7118 12.6776 16.5457 12.559 16.4033C12.4402 16.2371 12.2504 16.1659 12.0367 16.1421C11.8231 16.1184 11.657 16.2134 11.5145 16.332C11.3484 16.4507 11.2772 16.6169 11.2534 16.8542H11.2534ZM11.3009 6.95618C11.2772 7.16981 11.3484 7.35969 11.4671 7.50211C11.6095 7.66829 11.7756 7.73947 11.9893 7.76323C12.2029 7.76323 12.369 7.71576 12.5352 7.54958C12.6539 7.4309 12.7725 7.28849 12.7963 7.05113C12.7963 6.86124 12.7251 6.67135 12.6064 6.5052C12.4402 6.36278 12.2741 6.26784 12.0605 6.24408C11.8706 6.22037 11.6807 6.29157 11.5383 6.43399C11.3721 6.57641 11.3009 6.74256 11.3009 6.95618ZM11.4671 19.8213C11.4433 19.9874 11.5145 20.1061 11.6095 20.2011C11.7044 20.3197 11.8468 20.3672 11.9893 20.3672C12.1079 20.391 12.2504 20.3435 12.369 20.2485C12.4877 20.1536 12.5352 20.0112 12.5352 19.8688C12.559 19.7501 12.5115 19.6076 12.4165 19.489C12.3216 19.3703 12.1791 19.3228 12.0367 19.2991C11.8943 19.2753 11.7519 19.3466 11.657 19.4178C11.5383 19.5365 11.4671 19.6789 11.4671 19.8213ZM11.4908 4.01287C11.467 4.13155 11.5145 4.2977 11.6332 4.41641C11.7282 4.53509 11.8706 4.58256 11.9893 4.58256C12.1317 4.60629 12.2741 4.58256 12.3928 4.44014C12.5115 4.3452 12.5589 4.20278 12.5827 4.08408C12.5827 3.89419 12.5115 3.77551 12.4165 3.68057C12.3216 3.58562 12.2266 3.51441 12.0367 3.51441C11.8943 3.49068 11.7519 3.56189 11.6807 3.65683C11.5383 3.75177 11.4908 3.89419 11.4908 4.01287ZM12.2266 9.68587C12.3216 10.0419 12.4877 10.303 12.7726 10.5166C12.9862 10.6353 13.2235 10.7065 13.4847 10.7065C13.6983 10.7065 13.9119 10.659 14.0543 10.5641C14.268 10.4692 14.4341 10.303 14.529 10.1369C14.7189 9.82829 14.7664 9.51972 14.719 9.18741C14.6477 8.85509 14.4816 8.59399 14.173 8.38037C13.9594 8.26169 13.7457 8.19048 13.4847 8.19048C13.2948 8.19048 13.0574 8.23795 12.8913 8.33289C12.6539 8.42784 12.5115 8.59401 12.4165 8.73641C12.2266 9.02124 12.1554 9.35357 12.2266 9.68585L12.2266 9.68587ZM12.2978 14.0296C12.1792 14.3857 12.2266 14.7179 12.3453 15.0265C12.464 15.2402 12.6539 15.4063 12.82 15.525C13.0099 15.6199 13.2473 15.7149 13.4847 15.7149C13.6745 15.7149 13.8644 15.6674 14.0543 15.5725C14.3866 15.4063 14.6003 15.1452 14.6952 14.8604C14.7902 14.5281 14.7664 14.1958 14.624 13.8872C14.5053 13.6498 14.3392 13.4837 14.1493 13.365C13.9594 13.2463 13.722 13.1751 13.4847 13.1988C13.2948 13.1988 13.0811 13.2463 12.915 13.2938C12.6064 13.4837 12.3928 13.721 12.2978 14.0296ZM13.6508 11.8696C13.6271 12.2019 13.7457 12.5342 13.9831 12.7953C14.2442 13.0327 14.5053 13.1988 14.8614 13.2226H14.9563C15.2649 13.2226 15.5734 13.0802 15.8108 12.8665C16.0482 12.6292 16.1906 12.3206 16.1906 12.012C16.2381 11.6322 16.0957 11.3474 15.882 11.1101C15.6209 10.8489 15.3598 10.7065 14.98 10.6828C14.624 10.659 14.3154 10.754 14.0781 10.9914C13.817 11.2287 13.6745 11.5136 13.6508 11.8696ZM14.6002 6.36278C14.5765 6.45773 14.624 6.60014 14.6477 6.67135C14.6952 6.79003 14.7902 6.86124 14.8851 6.93247C14.9563 7.00365 15.075 7.05113 15.1937 7.05113C15.3123 7.05113 15.431 7.02739 15.526 6.97992C15.6209 6.90871 15.7159 6.8375 15.7871 6.7188C15.882 6.60014 15.9058 6.38652 15.882 6.24408C15.8583 6.07795 15.7396 5.93551 15.5972 5.84057C15.431 5.74562 15.2649 5.72189 15.0987 5.74562C14.9563 5.76938 14.7902 5.8643 14.6715 6.03048C14.624 6.10169 14.6003 6.22037 14.6003 6.36278H14.6002ZM14.624 17.2815C14.6002 17.4476 14.6002 17.6138 14.6715 17.8037C14.7427 17.9224 14.8851 18.0411 15.0513 18.1123C15.2411 18.1835 15.4073 18.1597 15.5497 18.0648C15.6921 18.0173 15.8345 17.8749 15.882 17.7088C15.9295 17.5426 15.9295 17.3527 15.8583 17.2103C15.7633 17.0679 15.6209 16.9254 15.4548 16.878C15.2649 16.8305 15.1225 16.8542 14.9563 16.9017C14.8139 16.9729 14.6952 17.1153 14.624 17.2815ZM15.5972 14.5756C15.6209 14.7417 15.7159 14.9079 15.9058 15.0503C16.0719 15.1452 16.2618 15.1927 16.4992 15.1452C16.6653 15.0977 16.8552 15.0028 16.9739 14.8367C17.0926 14.623 17.1163 14.4569 17.0688 14.267C17.0214 14.0296 16.9027 13.9109 16.7603 13.7685C16.5704 13.6736 16.3805 13.6261 16.1669 13.6736C15.977 13.6973 15.8108 13.816 15.6684 13.9821C15.5734 14.172 15.5497 14.3619 15.5972 14.5756H15.5972ZM15.5972 9.21113C15.526 9.42477 15.5497 9.6384 15.6209 9.80455C15.7159 9.99444 15.882 10.1131 16.0719 10.1843C16.2855 10.2793 16.4992 10.2318 16.6416 10.1369C16.8315 10.0419 16.9739 9.92323 17.0214 9.70961C17.1163 9.49598 17.0926 9.30609 16.9976 9.13992C16.9027 8.92632 16.7603 8.80761 16.5704 8.73641C16.3568 8.68893 16.1669 8.68893 15.9532 8.78388C15.7633 8.90256 15.6447 9.02124 15.5972 9.21113H15.5972ZM15.9295 4.48761C15.9532 4.60629 16.0245 4.72497 16.1194 4.77245C16.2618 4.84365 16.333 4.84365 16.4517 4.81992C16.5941 4.79616 16.6653 4.74871 16.7603 4.63003C16.8077 4.53509 16.8077 4.44014 16.784 4.3452C16.784 4.17902 16.7128 4.10784 16.5941 4.06034C16.5466 3.98913 16.4042 3.94166 16.2855 3.98913C16.1431 4.01289 16.0719 4.08408 16.0007 4.15529C15.9295 4.25023 15.9058 4.36893 15.9295 4.48761ZM16.0007 19.6551C16.0719 19.7501 16.1431 19.8213 16.2618 19.845C16.3805 19.8925 16.5229 19.8925 16.5941 19.845C16.6891 19.8213 16.784 19.7263 16.8077 19.6077C16.8552 19.489 16.8552 19.3703 16.784 19.2754C16.7603 19.1804 16.6416 19.0854 16.5704 19.0617C16.4517 19.0142 16.3093 19.0142 16.2143 19.0855C16.0957 19.1567 16.0245 19.2041 16.0007 19.3228C15.9532 19.4178 15.9532 19.5364 16.0007 19.6551ZM17.8047 11.8933C17.7809 12.0595 17.8521 12.2494 17.9471 12.3443C18.0895 12.5105 18.2319 12.5579 18.4218 12.5817C18.588 12.6054 18.7779 12.5342 18.8728 12.4155C19.0152 12.2969 19.0864 12.1544 19.0864 11.9646C19.1102 11.8221 19.0627 11.6322 18.944 11.4898C18.8253 11.3474 18.6592 11.2999 18.493 11.2999C18.3269 11.2762 18.1607 11.3237 18.0183 11.4424C17.8996 11.5848 17.8284 11.7272 17.8047 11.8933ZM18.3506 15.976C18.3743 16.1422 18.4456 16.2371 18.588 16.332C18.7066 16.427 18.8491 16.4507 18.9915 16.427C19.1339 16.4032 19.2526 16.3083 19.3238 16.2134C19.4187 16.0472 19.4425 15.9048 19.4187 15.7624C19.395 15.6199 19.3001 15.525 19.2051 15.4301C19.0627 15.3351 18.8965 15.3114 18.8016 15.3351C18.6117 15.3826 18.5168 15.4775 18.4218 15.5725C18.3506 15.7149 18.3269 15.8573 18.3506 15.976ZM18.3506 7.78694C18.3031 7.95312 18.3031 8.0718 18.3743 8.23795C18.4455 8.35663 18.5642 8.45157 18.6829 8.47531C18.8491 8.54652 18.9677 8.54652 19.1102 8.45157C19.2526 8.4041 19.3238 8.28542 19.3713 8.16674C19.4425 8.02433 19.4425 7.88191 19.3475 7.73949C19.2763 7.59705 19.1814 7.52585 19.0627 7.47837C18.8965 7.40717 18.7779 7.40717 18.6117 7.50213C18.5168 7.54958 18.3743 7.66829 18.3506 7.78697V7.78694ZM20.297 11.8933C20.2732 12.012 20.3207 12.1307 20.4157 12.2256C20.4869 12.2969 20.5818 12.3443 20.7005 12.3443C20.8429 12.3681 20.9379 12.3206 21.0091 12.2731C21.104 12.1782 21.1515 12.107 21.1515 11.9645C21.1752 11.8459 21.1277 11.7035 21.0803 11.6322C20.9853 11.5373 20.8667 11.4898 20.7717 11.4898C20.653 11.4661 20.5106 11.5136 20.4394 11.6085C20.3445 11.656 20.297 11.7984 20.297 11.8933H20.297Z" fill="#0F61E2"/>
</svg>
