<svg width="20" height="22" viewBox="0 0 20 22" fill="none" xmlns="http://www.w3.org/2000/svg">
<g id="check2.svg" clip-path="url(#clip0_105_2623)">
<path id="Vector" d="M10 21.187C15.5228 21.187 20 16.7099 20 11.187C20 5.66416 15.5228 1.18701 10 1.18701C4.47715 1.18701 0 5.66416 0 11.187C0 16.7099 4.47715 21.187 10 21.187Z" fill="url(#paint0_linear_105_2623)"/>
<path id="Vector_2" d="M15.0429 7.42488C14.9682 7.34951 14.8792 7.28968 14.7812 7.24885C14.6832 7.20803 14.5781 7.18701 14.472 7.18701C14.3658 7.18701 14.2607 7.20803 14.1627 7.24885C14.0647 7.28968 13.9758 7.34951 13.901 7.42488L7.90986 13.424L5.39278 10.8989C5.31516 10.8239 5.22353 10.765 5.12312 10.7254C5.02271 10.6859 4.9155 10.6665 4.80759 10.6683C4.69969 10.6702 4.59321 10.6933 4.49423 10.7363C4.39525 10.7793 4.30572 10.8414 4.23074 10.919C4.15576 10.9966 4.0968 11.0883 4.05723 11.1887C4.01766 11.2891 3.99826 11.3963 4.00012 11.5042C4.00199 11.6121 4.02509 11.7186 4.06811 11.8176C4.11113 11.9165 4.17322 12.0061 4.25084 12.0811L7.33889 15.1691C7.41365 15.2445 7.50259 15.3043 7.60059 15.3451C7.69859 15.386 7.8037 15.407 7.90986 15.407C8.01602 15.407 8.12113 15.386 8.21913 15.3451C8.31712 15.3043 8.40607 15.2445 8.48083 15.1691L15.0429 8.60703C15.1246 8.53172 15.1897 8.44032 15.2343 8.3386C15.2788 8.23687 15.3018 8.12701 15.3018 8.01595C15.3018 7.9049 15.2788 7.79504 15.2343 7.69331C15.1897 7.59158 15.1246 7.50019 15.0429 7.42488Z" fill="black"/>
</g>
<defs>
<linearGradient id="paint0_linear_105_2623" x1="20.113" y1="5.31701" x2="-0.105335" y2="4.22233" gradientUnits="userSpaceOnUse">
<stop stop-color="#F2F230"/>
<stop offset="1" stop-color="#888827"/>
</linearGradient>
<clipPath id="clip0_105_2623">
<rect width="20" height="21" fill="white" transform="translate(0 0.703125)"/>
</clipPath>
</defs>
</svg>
