<svg width="66" height="56" viewBox="0 0 66 56" fill="none" xmlns="http://www.w3.org/2000/svg">
<path id="Vector" d="M27.8682 35.839H20.613C21.5718 39.3493 21.4496 42.823 20.1128 45.0884C19.873 45.4991 19.4445 45.7211 19.0095 45.7211C18.7849 45.7211 18.5627 45.6605 18.3605 45.5426L18.3592 45.5418C17.7527 45.183 17.5466 44.397 17.9065 43.7886C18.5312 42.7242 18.784 41.1633 18.6518 39.3778C18.5199 37.5974 18.0071 35.6209 17.1314 33.7473L17.1312 33.747C16.8398 33.1211 17.0988 32.3769 17.7119 32.0632L17.7124 32.063C21.4287 30.1707 23.4692 27.944 23.8899 25.479C24.1383 24.0232 23.7943 22.626 23.2857 21.4668C23.0693 20.9737 22.645 20.704 22.1714 20.651C21.6933 20.5974 21.1656 20.7662 20.7695 21.1623L10.7768 31.155C10.2743 31.6575 9.46173 31.66 8.96371 31.1544C8.46177 30.6518 8.4595 29.8396 8.96498 29.3418C8.96526 29.3416 8.96554 29.3413 8.96582 29.341L13.7427 24.5641V17.8525L3.31452 28.2741V54.1765C3.31452 54.8858 2.74151 55.4588 2.03226 55.4588C1.323 55.4588 0.75 54.8858 0.75 54.1765V27.3103V27.2067L0.823273 27.1334L13.7358 14.2277V5.87371C13.7358 2.84531 16.1944 0.386719 19.2228 0.386719H59.763C62.7914 0.386719 65.25 2.84531 65.25 5.87371V30.3451C65.25 33.3735 62.7914 35.8321 59.763 35.8321H30.5193C32.3747 42.8519 30.8636 50.4859 26.6039 55.0558L26.6035 55.0563C26.3484 55.3284 26.0064 55.4656 25.6641 55.4656C25.3497 55.4656 25.0408 55.3546 24.7931 55.1245C24.269 54.6435 24.2461 53.8303 24.7311 53.311C28.5091 49.2569 29.7892 42.2365 27.8682 35.839ZM23.1614 16.7621L23.2418 16.7764L23.2983 16.8354C23.3859 16.9267 24.3647 17.9607 25.2218 19.5795C26.0783 21.1972 26.8245 23.4204 26.413 25.8789L26.413 25.8791C25.931 28.7382 24.0115 31.2133 20.7637 33.2607H59.763C61.3729 33.2607 62.6855 31.9481 62.6855 30.3382V14.657H16.3003V21.9972L20.9936 17.429C21.5669 16.871 22.3736 16.6228 23.1614 16.7621ZM16.3003 12.0925H62.6855V8.42908H16.3003V12.0925ZM59.763 2.95123H19.2159C17.6091 2.95123 16.2984 4.25886 16.2935 5.86457H62.6855C62.6805 4.25886 61.3698 2.95123 59.763 2.95123ZM38.3952 20.041H42.8683C43.5775 20.041 44.1505 20.614 44.1505 21.3232C44.1505 22.0325 43.5775 22.6055 42.8683 22.6055H38.3952C37.6859 22.6055 37.1129 22.0325 37.1129 21.3232C37.1129 20.614 37.6859 20.041 38.3952 20.041ZM51.0235 22.6055H46.5504C45.8412 22.6055 45.2681 22.0325 45.2681 21.3232C45.2681 20.614 45.8412 20.041 46.5504 20.041H51.0235C51.7328 20.041 52.3058 20.614 52.3058 21.3232C52.3058 22.0325 51.7328 22.6055 51.0235 22.6055ZM59.1915 22.6055H54.7184C54.0092 22.6055 53.4362 22.0325 53.4362 21.3232C53.4362 20.614 54.0092 20.041 54.7184 20.041H59.1915C59.9008 20.041 60.4738 20.614 60.4738 21.3232C60.4738 22.0335 59.8928 22.6055 59.1915 22.6055ZM44.967 25.4912H59.1915C59.9008 25.4912 60.4738 26.0642 60.4738 26.7735C60.4738 27.4827 59.9008 28.0557 59.1915 28.0557H44.9739C44.2646 28.0557 43.6916 27.4827 43.6916 26.7735C43.6916 26.0653 44.2636 25.4912 44.967 25.4912Z" fill="url(#paint0_linear_105_2675)" stroke="black" stroke-width="0.5"/>
<defs>
<linearGradient id="paint0_linear_105_2675" x1="0.638448" y1="11.9073" x2="65.2662" y2="7.80412" gradientUnits="userSpaceOnUse">
<stop stop-color="#F2F230"/>
<stop offset="1" stop-color="#F2F230"/>
</linearGradient>
</defs>
</svg>
