<svg width="24" height="24" viewBox="0 0 24 24" fill="none" xmlns="http://www.w3.org/2000/svg">
<path id="Vector" d="M13.6001 8.05591C14.3108 8.29279 14.903 8.69551 15.3294 9.24036C15.9216 9.97471 16.2059 10.946 16.2059 12.1541C16.2059 13.836 15.6373 14.9968 14.524 15.66C13.9081 15.968 13.2211 16.1338 12.392 16.1338H10.5679V12.7226H13.2921V11.2776H10.5679V7.84272H12.2972C12.7236 7.84272 13.15 7.91376 13.6001 8.05591ZM0.121094 12.0001C0.121094 9.84444 0.658838 7.84272 1.73195 5.99498C2.79083 4.21121 4.21218 2.78985 5.99596 1.73097C7.84369 0.657861 9.84066 0.120117 11.9892 0.120117C14.152 0.120117 16.1585 0.657861 18.0062 1.73097C19.79 2.78985 21.2042 4.21121 22.2465 5.99498C23.3362 7.84272 23.8811 9.84441 23.8811 12.0001C23.8811 14.1558 23.3362 16.1575 22.2465 18.0053C21.2042 19.789 19.79 21.2033 18.0062 22.2456C16.1585 23.3353 14.1568 23.8801 12.0011 23.8801C9.84541 23.8801 7.84369 23.3353 5.99596 22.2456C4.21218 21.2033 2.79083 19.789 1.73195 18.0053C0.658838 16.1575 0.121094 14.1558 0.121094 12.0001ZM6.54081 12.7226H8.08057V18.5738H12.4867C12.9368 18.6212 13.4817 18.5738 14.0739 18.4553C15.3057 18.1948 16.3006 17.6736 17.0587 16.8919C18.1484 15.7785 18.6932 14.1913 18.6932 12.1067C18.6932 10.0931 18.1721 8.50601 17.1534 7.36893C16.4191 6.53983 15.4241 5.97129 14.1449 5.66333C13.4817 5.49749 12.7473 5.42645 11.9182 5.42645H8.08057V11.2776H6.54081V12.7226Z" fill="#C2A633"/>
</svg>
