<svg width="72" height="70" viewBox="0 0 72 70" fill="none" xmlns="http://www.w3.org/2000/svg">
<g id="Vector">
<path d="M28.1059 25.6338L30.0778 17.7465L32.0496 25.6338L37.9651 27.6056L32.0496 29.5775L30.0778 37.4648L28.1059 29.5775L22.1904 27.6056L28.1059 25.6338Z" fill="url(#paint0_linear_105_2701)"/>
<path d="M47.8236 16.7606L52.7532 0L57.6828 16.7606L67.5419 21.6901L57.6828 26.6197L52.7532 41.4084L47.8236 26.6197L37.9645 21.6901L47.8236 16.7606Z" fill="url(#paint1_linear_105_2701)"/>
<path fill-rule="evenodd" clip-rule="evenodd" d="M12.331 43.3803H0.5V70H12.331V65.3867C14.2452 65.3208 16.2384 65.2691 17.0866 65.3027C21.1435 65.463 24.1728 66.4079 27.2359 67.3632C30.0934 68.2545 32.9804 69.155 36.7578 69.4358C37.7073 69.5064 38.6313 69.5975 39.5271 69.6858C42.7616 70.0049 45.6285 70.2877 47.9986 69.4358C51.025 68.3482 68.3183 60.0819 70.4801 57.9065C72.6418 55.7312 71.5608 49.8579 64.8597 50.9456C61.553 51.4823 57.7202 53.0253 54.244 54.4247C50.6752 55.8614 47.4824 57.1466 45.6208 57.0364C41.9459 56.8189 32.2183 55.0787 32.2183 55.0787L43.3873 55.2112C43.3873 55.2112 44.9652 55.2935 47.134 53.7736C49.3028 52.2535 51.2411 47.9001 47.9986 47.9001C44.7562 47.9001 41.2974 46.8124 41.2974 46.8124L27.4626 43.7669C27.4626 43.7669 22.7069 42.8968 20.7615 43.7669C19.5272 44.319 15.2747 45.8344 12.331 46.8684V43.3803Z" fill="url(#paint2_linear_105_2701)"/>
</g>
<defs>
<linearGradient id="paint0_linear_105_2701" x1="71.8869" y1="14.455" x2="0.132084" y2="10.5152" gradientUnits="userSpaceOnUse">
<stop stop-color="#F2F230"/>
<stop offset="1" stop-color="#888827"/>
</linearGradient>
<linearGradient id="paint1_linear_105_2701" x1="71.8869" y1="14.455" x2="0.132084" y2="10.5152" gradientUnits="userSpaceOnUse">
<stop stop-color="#F2F230"/>
<stop offset="1" stop-color="#888827"/>
</linearGradient>
<linearGradient id="paint2_linear_105_2701" x1="71.8869" y1="14.455" x2="0.132084" y2="10.5152" gradientUnits="userSpaceOnUse">
<stop stop-color="#F2F230"/>
<stop offset="1" stop-color="#888827"/>
</linearGradient>
</defs>
</svg>
