<svg width="24" height="24" viewBox="0 0 24 24" fill="none" xmlns="http://www.w3.org/2000/svg">
<path id="Vector" d="M18.0124 1.7358C19.8015 2.79787 21.22 4.22347 22.2654 6.0126C23.3417 7.84925 23.8811 9.84509 23.8811 12.0001C23.8811 14.1551 23.3417 16.1581 22.2654 18.0114C21.22 19.8005 19.8015 21.219 18.0124 22.2644C16.1591 23.3408 14.1561 23.8801 12.0011 23.8801C9.84606 23.8801 7.85022 23.3408 6.01357 22.2644C4.22445 21.219 2.79885 19.8005 1.73677 18.0114C0.660446 16.1581 0.121094 14.1551 0.121094 12.0001C0.121094 9.84509 0.660446 7.84925 1.73677 6.0126C2.79885 4.22347 4.22445 2.79787 6.01357 1.7358C7.85022 0.659469 9.84606 0.120117 12.0011 0.120117C14.1561 0.120117 16.1591 0.659469 18.0124 1.7358ZM7.13029 12.2377L11.8585 15.0176V10.1706L7.13029 12.2377ZM7.15405 13.2356L11.8585 19.8884V15.9918L7.15405 13.2356ZM7.27285 11.8338L11.8585 9.83796V4.15932L7.27285 11.8338ZM12.1674 19.8884L16.8481 13.2356L12.1674 15.9918V19.8884ZM12.1674 15.0176L16.8957 12.2377L12.1674 10.1706V15.0176ZM12.1674 9.83796L16.8006 11.8576L12.1674 4.15932V9.83796Z" fill="#2E3192"/>
</svg>
