<svg width="24" height="32" viewBox="0 0 24 32" fill="none" xmlns="http://www.w3.org/2000/svg">
<path opacity="0.97" fill-rule="evenodd" clip-rule="evenodd" d="M0.447496 30.2011C0.25 29.807 0.25 29.2907 0.25 28.2589V3.44784C0.25 2.41597 0.25 1.90035 0.447496 1.50628C0.621646 1.15955 0.898647 0.877437 1.24001 0.700873C1.62806 0.5 2.136 0.5 3.15187 0.5H12.6431C15.1727 0.5 16.4378 0.5 17.4757 0.782758C20.2918 1.54915 22.492 3.7837 23.2467 6.64518C23.5243 7.69945 23.5243 8.98465 23.5243 11.5544C23.5243 13.2273 22.7785 13.8408 22.1424 14.3628C21.6698 14.7511 21.2578 15.0895 21.2578 15.7772C21.2578 16.4547 21.738 16.7931 22.2945 17.1859C23.063 17.7277 23.978 18.3726 23.978 20.1529C23.978 22.7182 23.978 24.0015 23.701 25.0539C22.9469 27.9173 20.7461 30.1537 17.9281 30.9201C16.8921 31.2022 15.6295 31.2029 13.1037 31.2035L3.1525 31.2067C2.13663 31.2074 1.62869 31.2074 1.24064 31.0065C0.899277 30.8299 0.621646 30.5478 0.447496 30.2011ZM13.7782 10.5692C14.3473 9.66084 14.8408 8.87462 14.8408 7.86961C14.8408 5.83465 13.2135 4.18481 11.2063 4.18481C9.19855 4.18481 7.57125 5.91206 7.57125 7.86961C7.57125 8.87462 8.07793 9.66084 8.66284 10.5692C9.46356 11.8109 10.4107 13.2817 10.4107 15.854C10.4107 18.4257 9.46356 19.8964 8.66284 21.1388C8.07793 22.0465 7.57125 22.8327 7.57125 23.8377C7.57125 25.8727 9.19855 27.5226 11.2063 27.5226C13.2135 27.5226 14.8408 25.8727 14.8408 23.8377C14.8408 22.8327 14.3473 22.0465 13.7782 21.1388C12.9989 19.8964 12.0771 18.4257 12.0771 15.854C12.0771 13.2817 12.9989 11.8109 13.7782 10.5692Z" fill="#FFD634"/>
</svg>
