<svg width="42" height="28" viewBox="0 0 42 28" fill="none" xmlns="http://www.w3.org/2000/svg">
<path d="M41.3229 19.563L32.2404 3.07695C30.2495 -0.36021 25.3941 -0.395373 23.472 3.22288L13.9359 20.3683C12.155 23.5118 14.3559 27.4588 17.9194 27.4588H37.027C40.624 27.4588 43.3138 23.401 41.3229 19.563Z" fill="#3156AA"/>
<path d="M28.2257 20.8446L27.6663 19.8213C27.1421 18.8702 25.9895 16.8237 25.9895 16.8237L18.3048 2.8588C16.3139 -0.247828 11.598 -0.504517 9.60705 3.40734L0.663974 19.6016C-1.18748 23.0018 1.01343 27.4235 5.03051 27.4604H36.9588C32.0345 27.4974 30.4619 24.8285 28.2257 20.8446Z" fill="#1972E2"/>
<path d="M28.2257 20.8446L27.6663 19.8213C27.1421 18.8702 25.9895 16.8237 25.9895 16.8237L21.0282 7.68577L13.9013 20.4077C12.1204 23.5512 14.3213 27.5 17.8831 27.5H36.957C31.9974 27.4613 30.4602 24.8285 28.2257 20.8446Z" fill="url(#paint0_linear_2302_1752)"/>
<defs>
<linearGradient id="paint0_linear_2302_1752" x1="11.8203" y1="14.6363" x2="32.7625" y2="22.5052" gradientUnits="userSpaceOnUse">
<stop stop-color="#264CA2" stop-opacity="0"/>
<stop offset="1" stop-color="#234588"/>
</linearGradient>
</defs>
</svg>
