<svg width="34" height="30" viewBox="0 0 34 30" fill="none" xmlns="http://www.w3.org/2000/svg">
<path d="M25.1648 1.29091L25.0183 1H9.01831L1 15L8.98169 29H24.9817L33 15L25.1648 1.29091ZM10.8856 6.01818L2.31808 14.1636L9.12815 2.23636L10.8856 6.01818ZM24.5789 2.2L26.9222 15.1818L12.2037 6.2L24.5789 2.2ZM11.6911 6.74545L26.7025 15.9091L11.6911 24.3818V6.74545ZM26.8856 16.6364L24.2494 27.8364L12.3135 24.8909L26.8856 16.6364ZM10.9588 24.0909L2.31808 15.1818L10.9588 6.92727V24.0909ZM10.849 25.0364L9.16476 27.8364L2.90389 16.8545L10.849 25.0364ZM11.508 25.4L23.0046 28.2727H9.75057L11.508 25.4ZM27.7277 16.2L31.9748 15.2909L25.0915 27.3636L27.7277 16.2ZM31.9016 14.6L27.7277 15.5091L25.5675 3.47273L31.9016 14.6ZM11.508 5.65455L9.67735 1.72727H23.6636L11.508 5.65455Z" fill="url(#paint0_linear_2302_1738)" stroke="url(#paint1_linear_2302_1738)" stroke-width="0.736766"/>
<defs>
<linearGradient id="paint0_linear_2302_1738" x1="33.1808" y1="6.78199" x2="0.860383" y2="4.78208" gradientUnits="userSpaceOnUse">
<stop stop-color="#F2F230"/>
<stop offset="1" stop-color="#888827"/>
</linearGradient>
<linearGradient id="paint1_linear_2302_1738" x1="33.1808" y1="6.78199" x2="0.860383" y2="4.78208" gradientUnits="userSpaceOnUse">
<stop stop-color="#F2F230"/>
<stop offset="1" stop-color="#888827"/>
</linearGradient>
</defs>
</svg>
