<svg width="48" height="42" viewBox="0 0 48 42" fill="none" xmlns="http://www.w3.org/2000/svg">
<path id="Vector" d="M36.0111 1.0025L35.7989 0.578125H12.6173L1 21.0013L12.5643 41.4244H35.7459L47.3632 21.0013L36.0111 1.0025ZM15.3227 7.89863L2.9097 19.7812L12.7765 2.38173L15.3227 7.89863ZM35.1624 2.32868L38.5574 21.2665L17.2324 8.16387L35.1624 2.32868ZM16.4898 8.95958L38.2391 22.3275L16.4898 34.6875V8.95958ZM38.5043 23.3884L34.6849 39.7269L17.3916 35.4301L38.5043 23.3884ZM15.4288 34.2631L2.9097 21.2665L15.4288 9.22481V34.2631ZM15.2697 35.6423L12.8295 39.7269L3.75845 23.7067L15.2697 35.6423ZM16.2245 36.1728L32.8813 40.3635H13.6783L16.2245 36.1728ZM39.7244 22.7518L45.8779 21.4257L35.905 39.0373L39.7244 22.7518ZM45.7718 20.4178L39.7244 21.7439L36.5946 4.18533L45.7718 20.4178ZM16.2245 7.36816L13.5722 1.63907H33.8362L16.2245 7.36816Z" fill="url(#paint0_linear_1871_9439)" stroke="url(#paint1_linear_1871_9439)" stroke-width="0.736766"/>
<defs>
<linearGradient id="paint0_linear_1871_9439" x1="47.6251" y1="9.01288" x2="0.795288" y2="6.13492" gradientUnits="userSpaceOnUse">
<stop stop-color="#F2F230"/>
<stop offset="1" stop-color="#888827"/>
</linearGradient>
<linearGradient id="paint1_linear_1871_9439" x1="47.6251" y1="9.01288" x2="0.795288" y2="6.13492" gradientUnits="userSpaceOnUse">
<stop stop-color="#F2F230"/>
<stop offset="1" stop-color="#888827"/>
</linearGradient>
</defs>
</svg>
