<svg width="82" height="168" viewBox="0 0 82 168" fill="none" xmlns="http://www.w3.org/2000/svg">
<g id="Vector" style="mix-blend-mode:color-dodge" opacity="0.4">
<path d="M63.0514 1.02161L61.3996 0.472262L1.17913 60.6927L23.965 143.837L106.971 166.76L167.192 106.54L144.406 23.3959L63.0514 1.02161ZM27.192 72.6495L25.7618 135.712L6.26996 64.9567L27.192 72.6495ZM64.2858 6.66577L122.218 46.9593L32.8408 68.3764L64.2858 6.66577ZM32.9751 72.3693L124.143 50.5375L99.6972 139.091L32.9751 72.3693ZM127.583 52.5999L160.033 104.894L103.966 138.675L127.583 52.5999ZM95.8406 140.747L29.6138 139.564L30.9069 75.8132L95.8406 140.747ZM99.004 144.737L103.258 161.669L38.1469 143.687L99.004 144.737ZM102.86 143.632L156.999 111.23L107.114 161.115L102.86 143.632ZM129.102 47.7796L141.648 28.355L161.414 99.9359L129.102 47.7796ZM138.758 26.0168L126.488 45.1657L72.8215 7.76005L138.758 26.0168ZM28.1589 68.9311L6.41103 60.9637L59.0522 8.32245L28.1589 68.9311Z" fill="url(#paint0_linear_126_75833)"/>
<path d="M63.0514 1.02161L61.3996 0.472262L1.17913 60.6927L23.965 143.837L106.971 166.76L167.192 106.54L144.406 23.3959L63.0514 1.02161ZM27.192 72.6495L25.7618 135.712L6.26996 64.9567L27.192 72.6495ZM64.2858 6.66577L122.218 46.9593L32.8408 68.3764L64.2858 6.66577ZM32.9751 72.3693L124.143 50.5375L99.6972 139.091L32.9751 72.3693ZM127.583 52.5999L160.033 104.894L103.966 138.675L127.583 52.5999ZM95.8406 140.747L29.6138 139.564L30.9069 75.8132L95.8406 140.747ZM99.004 144.737L103.258 161.669L38.1469 143.687L99.004 144.737ZM102.86 143.632L156.999 111.23L107.114 161.115L102.86 143.632ZM129.102 47.7796L141.648 28.355L161.414 99.9359L129.102 47.7796ZM138.758 26.0168L126.488 45.1657L72.8215 7.76005L138.758 26.0168ZM28.1589 68.9311L6.41103 60.9637L59.0522 8.32245L28.1589 68.9311Z" stroke="url(#paint1_linear_126_75833)" stroke-width="0.736766"/>
</g>
<defs>
<linearGradient id="paint0_linear_126_75833" x1="113.996" y1="-8.37495" x2="-15.1446" y2="105.788" gradientUnits="userSpaceOnUse">
<stop stop-color="#F2F230"/>
<stop offset="1" stop-color="#888827"/>
</linearGradient>
<linearGradient id="paint1_linear_126_75833" x1="113.996" y1="-8.37495" x2="-15.1446" y2="105.788" gradientUnits="userSpaceOnUse">
<stop stop-color="#F2F230"/>
<stop offset="1" stop-color="#888827"/>
</linearGradient>
</defs>
</svg>
