<svg width="198" height="42" viewBox="0 0 198 42" fill="none" xmlns="http://www.w3.org/2000/svg">
<path d="M36.0111 1.00122L35.7989 0.576843H12.6173L1 21L12.5643 41.4232H35.7459L47.3632 21L36.0111 1.00122ZM15.3227 7.89735L2.9097 19.7799L12.7765 2.38045L15.3227 7.89735ZM35.1624 2.3274L38.5574 21.2652L17.2324 8.16259L35.1624 2.3274ZM16.4898 8.95829L38.2391 22.3262L16.4898 34.6862V8.95829ZM38.5043 23.3871L34.6849 39.7257L17.3916 35.4288L38.5043 23.3871ZM15.4288 34.2618L2.9097 21.2652L15.4288 9.22353V34.2618ZM15.2697 35.641L12.8295 39.7257L3.75845 23.7054L15.2697 35.641ZM16.2245 36.1715L32.8813 40.3622H13.6783L16.2245 36.1715ZM39.7244 22.7506L45.8779 21.4244L35.905 39.036L39.7244 22.7506ZM45.7718 20.4165L39.7244 21.7427L36.5946 4.18405L45.7718 20.4165ZM16.2245 7.36688L13.5722 1.63779H33.8362L16.2245 7.36688Z" fill="url(#paint0_linear_105_2324)" stroke="url(#paint1_linear_105_2324)" stroke-width="0.736766"/>
<path d="M57.9395 31V11.8155H61.146L72.273 26.8068L71.6701 26.9165C71.597 26.4049 71.533 25.8841 71.4782 25.3543C71.4234 24.8062 71.3686 24.2398 71.3138 23.6551C71.2772 23.0704 71.2407 22.4583 71.2042 21.8189C71.1859 21.1794 71.1676 20.5125 71.1493 19.8182C71.1311 19.1056 71.1219 18.3565 71.1219 17.5709V11.8155H74.6574V31H71.396L60.2142 16.228L60.9268 16.0361C61.0181 17.0593 61.0912 17.9363 61.146 18.6671C61.2191 19.3797 61.2739 20.0009 61.3105 20.5308C61.347 21.0424 61.3744 21.4717 61.3927 21.8189C61.4292 22.166 61.4475 22.4858 61.4475 22.7781C61.4658 23.0522 61.4749 23.3171 61.4749 23.5729V31H57.9395ZM78.0791 31V16.5568H81.4501V31H78.0791ZM79.7235 13.4873C79.0474 13.4873 78.5176 13.3229 78.1339 12.994C77.7685 12.6469 77.5858 12.1627 77.5858 11.5415C77.5858 10.9568 77.7776 10.4818 78.1613 10.1163C78.545 9.75093 79.0657 9.56822 79.7235 9.56822C80.4178 9.56822 80.9476 9.74179 81.313 10.0889C81.6967 10.4178 81.8886 10.902 81.8886 11.5415C81.8886 12.1079 81.6967 12.5738 81.313 12.9392C80.9294 13.3046 80.3995 13.4873 79.7235 13.4873ZM83.6143 31V28.5882L91.1511 18.6671V19.3797H83.6143V16.5568H94.6591V18.9686L87.3416 28.6979L87.232 28.1771H94.8509V31H83.6143ZM101.787 31.2741C100.599 31.2741 99.5211 30.9452 98.5527 30.2874C97.5844 29.6297 96.8078 28.7344 96.2232 27.6016C95.6385 26.4688 95.3462 25.1807 95.3462 23.7373C95.3462 22.2939 95.6385 21.0058 96.2232 19.873C96.8078 18.7402 97.6026 17.8541 98.6075 17.2146C99.6124 16.5751 100.745 16.2554 102.006 16.2554C102.737 16.2554 103.404 16.365 104.007 16.5843C104.61 16.7852 105.139 17.0776 105.596 17.4613C106.053 17.8449 106.427 18.2834 106.72 18.7768C107.03 19.2701 107.241 19.7999 107.35 20.3663L106.61 20.1745V16.5568H110.009V31H106.583V27.5468L107.378 27.4098C107.25 27.9031 107.012 28.3873 106.665 28.8623C106.336 29.3191 105.916 29.7302 105.404 30.0956C104.911 30.4427 104.354 30.7259 103.733 30.9452C103.13 31.1644 102.481 31.2741 101.787 31.2741ZM102.718 28.2868C103.504 28.2868 104.198 28.0949 104.801 27.7112C105.404 27.3275 105.87 26.7977 106.199 26.1217C106.546 25.4274 106.72 24.6326 106.72 23.7373C106.72 22.8603 106.546 22.0838 106.199 21.4078C105.87 20.7317 105.404 20.2019 104.801 19.8182C104.198 19.4345 103.504 19.2427 102.718 19.2427C101.933 19.2427 101.239 19.4345 100.636 19.8182C100.051 20.2019 99.5942 20.7317 99.2653 21.4078C98.9364 22.0838 98.772 22.8603 98.772 23.7373C98.772 24.6326 98.9364 25.4274 99.2653 26.1217C99.5942 26.7977 100.051 27.3275 100.636 27.7112C101.239 28.0949 101.933 28.2868 102.718 28.2868Z" fill="white"/>
<path d="M128.276 31.2741C126.833 31.2741 125.499 31.0274 124.275 30.5341C123.051 30.0225 121.982 29.3191 121.068 28.4238C120.173 27.5285 119.479 26.4871 118.985 25.2995C118.492 24.0936 118.245 22.7872 118.245 21.3804C118.245 19.9918 118.492 18.7037 118.985 17.5161C119.497 16.3102 120.21 15.2687 121.123 14.3917C122.037 13.4965 123.106 12.8022 124.33 12.3089C125.572 11.8155 126.906 11.5689 128.331 11.5689C129.336 11.5689 130.304 11.7059 131.236 11.98C132.168 12.254 133.008 12.6377 133.757 13.131C134.507 13.6244 135.128 14.1816 135.621 14.8028L133.374 17.1598C132.862 16.6665 132.332 16.2554 131.784 15.9265C131.254 15.5976 130.697 15.3418 130.112 15.1591C129.528 14.9764 128.925 14.8851 128.304 14.8851C127.39 14.8851 126.54 15.0495 125.755 15.3784C124.987 15.7072 124.311 16.164 123.727 16.7487C123.16 17.3334 122.713 18.0185 122.384 18.8042C122.055 19.5898 121.891 20.4485 121.891 21.3804C121.891 22.2756 122.055 23.1252 122.384 23.9292C122.731 24.7331 123.206 25.4365 123.809 26.0394C124.412 26.6424 125.106 27.1174 125.892 27.4646C126.696 27.7935 127.545 27.9579 128.441 27.9579C129.117 27.9579 129.747 27.8574 130.332 27.6564C130.916 27.4554 131.437 27.1814 131.894 26.8342C132.351 26.4688 132.698 26.0486 132.935 25.5735C133.191 25.0985 133.319 24.5869 133.319 24.0388V23.4358L133.812 24.0114H128.139V20.8322H136.827C136.864 21.0332 136.891 21.2616 136.909 21.5174C136.927 21.7549 136.937 21.9924 136.937 22.23C136.955 22.4492 136.964 22.6411 136.964 22.8055C136.964 24.0662 136.745 25.2173 136.306 26.2587C135.868 27.2819 135.247 28.168 134.443 28.9171C133.657 29.6662 132.734 30.2509 131.675 30.6711C130.633 31.0731 129.5 31.2741 128.276 31.2741ZM138.622 31V10.7193H142.02V31H138.622ZM150.811 31.2741C149.368 31.2741 148.08 30.9543 146.947 30.3148C145.814 29.6571 144.919 28.7618 144.261 27.629C143.603 26.4962 143.274 25.2081 143.274 23.7647C143.274 22.3213 143.603 21.0332 144.261 19.9004C144.919 18.7676 145.814 17.8815 146.947 17.242C148.08 16.5843 149.368 16.2554 150.811 16.2554C152.236 16.2554 153.515 16.5843 154.648 17.242C155.781 17.8815 156.667 18.7676 157.306 19.9004C157.964 21.0332 158.293 22.3213 158.293 23.7647C158.293 25.2081 157.964 26.4962 157.306 27.629C156.667 28.7618 155.781 29.6571 154.648 30.3148C153.515 30.9543 152.236 31.2741 150.811 31.2741ZM150.811 28.2868C151.597 28.2868 152.291 28.0858 152.894 27.6838C153.515 27.2819 153.999 26.7429 154.347 26.0669C154.712 25.3908 154.886 24.6235 154.867 23.7647C154.886 22.8877 154.712 22.1112 154.347 21.4352C153.999 20.7592 153.515 20.2293 152.894 19.8456C152.291 19.4436 151.597 19.2427 150.811 19.2427C150.025 19.2427 149.313 19.4436 148.673 19.8456C148.052 20.2293 147.568 20.7683 147.221 21.4626C146.874 22.1386 146.7 22.906 146.7 23.7647C146.7 24.6235 146.874 25.3908 147.221 26.0669C147.568 26.7429 148.052 27.2819 148.673 27.6838C149.313 28.0858 150.025 28.2868 150.811 28.2868ZM167.776 31.2741C167.137 31.2741 166.506 31.1827 165.885 31C165.282 30.799 164.734 30.5341 164.241 30.2052C163.748 29.8763 163.336 29.5109 163.008 29.109C162.679 28.6887 162.459 28.2685 162.35 27.8483L163.145 27.492L163.062 30.9452H159.801V10.7193H163.172V19.9004L162.569 19.6264C162.66 19.1879 162.861 18.7768 163.172 18.3931C163.501 17.9911 163.903 17.6348 164.378 17.3242C164.853 16.9953 165.374 16.7396 165.94 16.5568C166.506 16.3559 167.082 16.2554 167.667 16.2554C168.964 16.2554 170.106 16.5751 171.092 17.2146C172.097 17.8541 172.883 18.7402 173.449 19.873C174.034 21.0058 174.326 22.2939 174.326 23.7373C174.326 25.199 174.043 26.4962 173.477 27.629C172.91 28.7618 172.125 29.6571 171.12 30.3148C170.133 30.9543 169.019 31.2741 167.776 31.2741ZM167.064 28.3142C167.831 28.3142 168.516 28.1223 169.119 27.7386C169.722 27.3367 170.197 26.7977 170.544 26.1217C170.891 25.4274 171.065 24.6326 171.065 23.7373C171.065 22.8603 170.891 22.0838 170.544 21.4078C170.215 20.7317 169.75 20.2019 169.147 19.8182C168.544 19.4345 167.849 19.2427 167.064 19.2427C166.278 19.2427 165.584 19.4345 164.981 19.8182C164.378 20.2019 163.903 20.7317 163.556 21.4078C163.209 22.0838 163.035 22.8603 163.035 23.7373C163.035 24.6326 163.209 25.4274 163.556 26.1217C163.903 26.7977 164.378 27.3367 164.981 27.7386C165.584 28.1223 166.278 28.3142 167.064 28.3142ZM181.278 31.2741C180.09 31.2741 179.012 30.9452 178.044 30.2874C177.076 29.6297 176.299 28.7344 175.714 27.6016C175.13 26.4688 174.837 25.1807 174.837 23.7373C174.837 22.2939 175.13 21.0058 175.714 19.873C176.299 18.7402 177.094 17.8541 178.099 17.2146C179.104 16.5751 180.237 16.2554 181.497 16.2554C182.228 16.2554 182.895 16.365 183.498 16.5843C184.101 16.7852 184.631 17.0776 185.087 17.4613C185.544 17.8449 185.919 18.2834 186.211 18.7768C186.522 19.2701 186.732 19.7999 186.841 20.3663L186.101 20.1745V16.5568H189.5V31H186.074V27.5468L186.869 27.4098C186.741 27.9031 186.503 28.3873 186.156 28.8623C185.827 29.3191 185.407 29.7302 184.896 30.0956C184.402 30.4427 183.845 30.7259 183.224 30.9452C182.621 31.1644 181.972 31.2741 181.278 31.2741ZM182.21 28.2868C182.995 28.2868 183.69 28.0949 184.293 27.7112C184.896 27.3275 185.362 26.7977 185.69 26.1217C186.038 25.4274 186.211 24.6326 186.211 23.7373C186.211 22.8603 186.038 22.0838 185.69 21.4078C185.362 20.7317 184.896 20.2019 184.293 19.8182C183.69 19.4345 182.995 19.2427 182.21 19.2427C181.424 19.2427 180.73 19.4345 180.127 19.8182C179.542 20.2019 179.085 20.7317 178.757 21.4078C178.428 22.0838 178.263 22.8603 178.263 23.7373C178.263 24.6326 178.428 25.4274 178.757 26.1217C179.085 26.7977 179.542 27.3275 180.127 27.7112C180.73 28.0949 181.424 28.2868 182.21 28.2868ZM191.928 31V10.7193H195.327V31H191.928Z" fill="url(#paint2_linear_105_2324)"/>
<defs>
<linearGradient id="paint0_linear_105_2324" x1="47.6251" y1="9.0116" x2="0.795288" y2="6.13364" gradientUnits="userSpaceOnUse">
<stop stop-color="#F2F230"/>
<stop offset="1" stop-color="#888827"/>
</linearGradient>
<linearGradient id="paint1_linear_105_2324" x1="47.6251" y1="9.0116" x2="0.795288" y2="6.13364" gradientUnits="userSpaceOnUse">
<stop stop-color="#F2F230"/>
<stop offset="1" stop-color="#888827"/>
</linearGradient>
<linearGradient id="paint2_linear_105_2324" x1="198.165" y1="11.021" x2="61.1982" y2="-19.9509" gradientUnits="userSpaceOnUse">
<stop stop-color="#F2F230"/>
<stop offset="1" stop-color="#888827"/>
</linearGradient>
</defs>
</svg>
