<svg width="70" height="125" viewBox="0 0 70 125" fill="none" xmlns="http://www.w3.org/2000/svg">
<g id="Vector" style="mix-blend-mode:color-dodge" opacity="0.4">
<path d="M-8.27565 1.2129L-9.49729 0.806612L-54.0354 45.3448L-37.1834 106.837L24.2069 123.791L68.745 79.2527L51.8929 17.7606L-8.27565 1.2129ZM-34.7967 54.1879L-35.8545 100.828L-50.2703 48.4984L-34.7967 54.1879ZM-7.3627 5.38724L35.4833 35.1877L-30.6189 51.0275L-7.3627 5.38724ZM-30.5196 53.9806L36.9067 37.8341L18.8271 103.327L-30.5196 53.9806ZM39.4512 39.3595L63.4508 78.0352L21.9841 103.019L39.4512 39.3595ZM15.9748 104.552L-33.0056 103.677L-32.0492 56.5277L15.9748 104.552ZM18.3144 107.503L21.4606 120.025L-26.6946 106.726L18.3144 107.503ZM21.1664 106.686L61.2065 82.7214L24.3122 119.616L21.1664 106.686ZM40.5744 35.7944L49.8532 21.4283L64.4722 74.3684L40.5744 35.7944ZM47.7162 19.6989L38.6412 33.8612L-1.04981 6.19655L47.7162 19.6989ZM-34.0816 51.4378L-50.166 45.5452L-11.2333 6.61249L-34.0816 51.4378Z" fill="url(#paint0_linear_126_75832)"/>
<path d="M-8.27565 1.2129L-9.49729 0.806612L-54.0354 45.3448L-37.1834 106.837L24.2069 123.791L68.745 79.2527L51.8929 17.7606L-8.27565 1.2129ZM-34.7967 54.1879L-35.8545 100.828L-50.2703 48.4984L-34.7967 54.1879ZM-7.3627 5.38724L35.4833 35.1877L-30.6189 51.0275L-7.3627 5.38724ZM-30.5196 53.9806L36.9067 37.8341L18.8271 103.327L-30.5196 53.9806ZM39.4512 39.3595L63.4508 78.0352L21.9841 103.019L39.4512 39.3595ZM15.9748 104.552L-33.0056 103.677L-32.0492 56.5277L15.9748 104.552ZM18.3144 107.503L21.4606 120.025L-26.6946 106.726L18.3144 107.503ZM21.1664 106.686L61.2065 82.7214L24.3122 119.616L21.1664 106.686ZM40.5744 35.7944L49.8532 21.4283L64.4722 74.3684L40.5744 35.7944ZM47.7162 19.6989L38.6412 33.8612L-1.04981 6.19655L47.7162 19.6989ZM-34.0816 51.4378L-50.166 45.5452L-11.2333 6.61249L-34.0816 51.4378Z" stroke="url(#paint1_linear_126_75832)" stroke-width="0.736766"/>
</g>
<defs>
<linearGradient id="paint0_linear_126_75832" x1="29.4021" y1="-5.73665" x2="-66.1082" y2="78.6964" gradientUnits="userSpaceOnUse">
<stop stop-color="#F2F230"/>
<stop offset="1" stop-color="#888827"/>
</linearGradient>
<linearGradient id="paint1_linear_126_75832" x1="29.4021" y1="-5.73665" x2="-66.1082" y2="78.6964" gradientUnits="userSpaceOnUse">
<stop stop-color="#F2F230"/>
<stop offset="1" stop-color="#888827"/>
</linearGradient>
</defs>
</svg>
