<svg width="24" height="24" viewBox="0 0 24 24" fill="none" xmlns="http://www.w3.org/2000/svg">
<path id="Vector" d="M12.0131 0.120117C5.36749 0.120117 0.121094 5.50812 0.121094 11.9881C0.121094 18.5641 5.43709 23.8801 11.9891 23.8801C18.6347 23.8801 23.8811 18.4921 23.8811 11.9881C23.8811 5.36652 18.4931 0.120117 12.0131 0.120117ZM16.7339 5.35692C17.6771 4.81212 19.1987 5.68572 20.1347 7.30572C21.0707 8.92572 21.0635 10.6801 20.1203 11.2249C19.1771 11.7697 17.6555 10.8961 16.7195 9.27612C15.7859 7.65612 15.7931 5.90172 16.7339 5.35692ZM7.26829 18.6433C6.32509 19.1881 4.80349 18.3145 3.86749 16.6945C2.93149 15.0745 2.93869 13.3201 3.88189 12.7753C4.82509 12.2305 6.34669 13.1041 7.28269 14.7241C8.21629 16.3441 8.20909 18.0985 7.26829 18.6433ZM7.28029 9.27372C6.34429 10.8937 4.82269 11.7649 3.87949 11.2225C2.93629 10.6801 2.93149 8.92332 3.86509 7.30332C4.80109 5.68332 6.32269 4.81212 7.26589 5.35452C8.20909 5.90172 8.21629 7.65612 7.28029 9.27372ZM12.0011 21.3913C10.1315 21.3913 8.61469 20.5081 8.61469 19.4209C8.61469 18.3337 10.1315 17.4505 12.0011 17.4505C13.8707 17.4505 15.3875 18.3337 15.3875 19.4209C15.3875 20.5105 13.8707 21.3913 12.0011 21.3913ZM12.0011 6.54972C10.1315 6.54972 8.61469 5.66652 8.61469 4.57932C8.61469 3.49212 10.1315 2.60892 12.0011 2.60892C13.8707 2.60892 15.3875 3.49212 15.3875 4.57932C15.3875 5.66652 13.8707 6.54972 12.0011 6.54972ZM20.1347 16.6969C19.1987 18.3169 17.6771 19.1881 16.7339 18.6457C15.7907 18.1033 15.7859 16.3465 16.7195 14.7265C17.6531 13.1065 19.1771 12.2353 20.1203 12.7777C21.0635 13.3225 21.0707 15.0769 20.1347 16.6969Z" fill="#E6007A"/>
</svg>
