<svg width="390" height="272" viewBox="0 0 390 272" fill="none" xmlns="http://www.w3.org/2000/svg">
<rect width="179.176" height="179.176" rx="28.99" transform="matrix(0.866025 -0.5 0.866025 0.5 40 136.07)" fill="#F2F230" fill-opacity="0.11"/>
<g filter="url(#filter0_f_1403_10162)">
<rect width="179.176" height="179.176" rx="28.99" transform="matrix(0.866025 -0.5 0.866025 0.5 40 136.07)" fill="#F2F230" fill-opacity="0.5"/>
</g>
<rect width="179.176" height="179.176" rx="28.99" transform="matrix(0.866025 -0.5 0.866025 0.5 40 92.5898)" fill="url(#paint0_linear_1403_10162)"/>
<g filter="url(#filter1_i_1403_10162)">
<path d="M149.198 119.936L114.962 100.172L117.155 98.9056L151.391 118.67L149.198 119.936ZM132.08 103.337C130.894 102.776 129.597 102.557 128.188 102.681C126.779 102.805 125.38 103.268 123.989 104.071C123.044 104.616 122.38 105.154 121.996 105.684C121.604 106.209 121.466 106.706 121.582 107.174C121.706 107.638 122.063 108.039 122.651 108.379C123.124 108.672 123.655 108.86 124.243 108.942C124.84 109.02 125.473 109.02 126.142 108.942C126.802 108.86 127.493 108.724 128.215 108.533C128.928 108.338 129.65 108.106 130.381 107.838L133.431 106.757C134.893 106.222 136.346 105.795 137.79 105.476C139.235 105.157 140.648 104.974 142.03 104.928C143.412 104.881 144.745 104.997 146.028 105.275C147.321 105.548 148.543 106.011 149.693 106.665C151.36 107.638 152.385 108.724 152.769 109.923C153.152 111.112 152.889 112.36 151.98 113.667C151.07 114.964 149.501 116.256 147.272 117.543C145.061 118.82 142.797 119.736 140.478 120.292C138.169 120.842 135.891 120.999 133.645 120.763C131.398 120.515 129.267 119.836 127.252 118.724L132.856 115.489C133.836 115.984 134.866 116.274 135.945 116.362C137.024 116.439 138.111 116.341 139.208 116.068C140.305 115.785 141.352 115.356 142.351 114.779C143.331 114.213 144.04 113.639 144.477 113.057C144.923 112.471 145.092 111.915 144.985 111.39C144.878 110.865 144.495 110.412 143.835 110.031C143.22 109.676 142.52 109.483 141.736 109.452C140.96 109.416 140.077 109.514 139.088 109.745C138.107 109.972 136.997 110.304 135.758 110.741L132.026 112.031C129.155 113.039 126.454 113.585 123.922 113.667C121.39 113.75 119.116 113.204 117.101 112.031C115.434 111.078 114.427 109.987 114.079 108.757C113.74 107.522 114.008 106.25 114.881 104.943C115.755 103.636 117.191 102.406 119.188 101.253C121.221 100.079 123.342 99.2556 125.554 98.7821C127.774 98.3034 129.927 98.1773 132.013 98.4038C134.099 98.6303 135.972 99.2067 137.63 100.133L132.08 103.337ZM170.122 104.336C168.232 105.427 166.199 106.199 164.024 106.652C161.858 107.1 159.731 107.221 157.645 107.015C155.559 106.809 153.709 106.261 152.095 105.371L157.712 102.128C158.835 102.705 160.141 102.944 161.63 102.846C163.119 102.748 164.434 102.37 165.575 101.711C166.485 101.186 167.087 100.607 167.381 99.9741C167.675 99.3307 167.657 98.6873 167.327 98.0439C166.997 97.3903 166.36 96.7906 165.415 96.2451C164.452 95.6892 163.4 95.3186 162.259 95.1333C161.126 94.9429 159.999 94.9351 158.875 95.1101C157.752 95.2851 156.727 95.6351 155.799 96.1601C154.997 96.6234 154.382 97.1689 153.954 97.7969C153.535 98.4197 153.401 99.0167 153.553 99.5881L147.481 102.028L134.335 92.9407L151.078 83.2745L155.813 86.0076L143.843 92.9175L149.995 97.2873L150.156 97.1947C149.96 96.5256 150.124 95.7818 150.651 94.9634C151.177 94.1451 152.041 93.3884 153.245 92.6936C154.894 91.7414 156.753 91.116 158.822 90.8175C160.89 90.519 162.976 90.5447 165.081 90.8947C167.176 91.2396 169.097 91.9215 170.845 92.9407C172.699 94.0009 173.912 95.1951 174.482 96.523C175.053 97.8406 174.977 99.1814 174.255 100.545C173.533 101.899 172.155 103.163 170.122 104.336ZM193.852 90.8997C191.543 92.2224 188.997 93.0382 186.216 93.3471C183.443 93.6507 180.545 93.4449 177.523 92.7294C174.509 92.0088 171.509 90.7813 168.522 89.0467C165.536 87.3225 163.432 85.5982 162.21 83.8739C160.998 82.1445 160.668 80.4872 161.22 78.9019C161.773 77.3063 163.195 75.8471 165.487 74.5244C167.778 73.2016 170.301 72.3832 173.056 72.0692C175.82 71.7501 178.7 71.9405 181.695 72.6405C184.682 73.3354 187.664 74.5475 190.642 76.2769C193.647 78.0115 195.769 79.7512 197.008 81.496C198.256 83.2357 198.617 84.9059 198.091 86.5067C197.565 88.1074 196.152 89.5717 193.852 90.8997ZM189.051 88.128C190.62 87.2221 191.084 86.0434 190.442 84.592C189.8 83.1405 187.896 81.5063 184.731 79.6894C182.654 78.4901 180.71 77.6152 178.9 77.0644C177.099 76.5085 175.463 76.2538 173.992 76.3001C172.53 76.3413 171.277 76.6629 170.234 77.2652C168.674 78.1659 168.206 79.3368 168.83 80.778C169.454 82.2192 171.317 83.8405 174.42 85.642C176.524 86.8567 178.49 87.7497 180.318 88.321C182.146 88.882 183.799 89.1419 185.279 89.1008C186.751 89.0544 188.008 88.7302 189.051 88.128ZM218.273 76.8011C215.964 78.1239 213.419 78.9397 210.637 79.2485C207.864 79.5522 204.967 79.3463 201.944 78.6308C198.931 77.9103 195.931 76.6827 192.944 74.9481C189.957 73.2239 187.853 71.4996 186.632 69.7754C185.419 68.046 185.089 66.3886 185.642 64.8033C186.195 63.2077 187.617 61.7486 189.908 60.4258C192.2 59.103 194.723 58.2846 197.478 57.9706C200.241 57.6515 203.121 57.842 206.117 58.542C209.104 59.2368 212.086 60.4489 215.064 62.1783C218.068 63.9129 220.19 65.6526 221.43 67.3974C222.678 69.1371 223.039 70.8073 222.513 72.4081C221.987 74.0088 220.574 75.4731 218.273 76.8011ZM213.472 74.0294C215.042 73.1235 215.505 71.9448 214.863 70.4934C214.221 69.0419 212.318 67.4077 209.153 65.5908C207.075 64.3916 205.132 63.5166 203.322 62.9658C201.521 62.41 199.885 62.1552 198.414 62.2015C196.952 62.2427 195.699 62.5644 194.656 63.1666C193.096 64.0673 192.627 65.2383 193.252 66.6794C193.876 68.1206 195.739 69.7419 198.842 71.5434C200.946 72.7581 202.912 73.6511 204.739 74.2224C206.567 74.7834 208.221 75.0434 209.701 75.0022C211.172 74.9559 212.429 74.6316 213.472 74.0294ZM242.695 62.7025C240.386 64.0253 237.84 64.8411 235.059 65.1499C232.286 65.4536 229.388 65.2477 226.366 64.5323C223.352 63.8117 220.352 62.5841 217.366 60.8496C214.379 59.1253 212.275 57.401 211.053 55.6768C209.841 53.9474 209.511 52.29 210.064 50.7047C210.616 49.1092 212.038 47.65 214.33 46.3272C216.621 45.0044 219.144 44.186 221.899 43.8721C224.663 43.5529 227.543 43.7434 230.539 44.4434C233.525 45.1382 236.508 46.3503 239.485 48.0798C242.49 49.8143 244.612 51.554 245.851 53.2988C247.099 55.0385 247.461 56.7088 246.934 58.3095C246.408 59.9102 244.995 61.3746 242.695 62.7025ZM237.894 59.9308C239.463 59.0249 239.927 57.8463 239.285 56.3948C238.643 54.9433 236.739 53.3091 233.574 51.4922C231.497 50.293 229.553 49.418 227.743 48.8673C225.942 48.3114 224.306 48.0566 222.835 48.1029C221.373 48.1441 220.121 48.4658 219.077 49.068C217.517 49.9687 217.049 51.1397 217.673 52.5808C218.297 54.022 220.161 55.6433 223.263 57.4448C225.367 58.6595 227.333 59.5525 229.161 60.1238C230.989 60.6848 232.643 60.9448 234.123 60.9036C235.594 60.8573 236.851 60.533 237.894 59.9308Z" fill="#30301D"/>
</g>
<path d="M191.123 108.644L194.983 106.415L206.841 113.261C208.173 114.03 209.02 114.886 209.382 115.829C209.751 116.77 209.647 117.729 209.07 118.707C208.488 119.681 207.442 120.604 205.932 121.476C204.416 122.351 202.814 122.956 201.126 123.293C199.432 123.625 197.771 123.685 196.142 123.473C194.514 123.26 193.034 122.769 191.702 122.001L179.844 115.155L183.705 112.926L195.233 119.582C195.928 119.983 196.698 120.252 197.542 120.39C198.392 120.523 199.251 120.518 200.119 120.374C200.987 120.23 201.792 119.944 202.535 119.515C203.284 119.082 203.78 118.617 204.024 118.12C204.273 117.619 204.279 117.125 204.042 116.637C203.81 116.147 203.346 115.701 202.651 115.299L191.123 108.644ZM212.312 102.475C211.521 102.101 210.657 101.955 209.718 102.037C208.778 102.12 207.845 102.428 206.918 102.964C206.288 103.327 205.845 103.686 205.59 104.039C205.328 104.389 205.236 104.721 205.313 105.033C205.396 105.342 205.634 105.609 206.026 105.836C206.341 106.031 206.695 106.157 207.087 106.212C207.486 106.263 207.908 106.263 208.353 106.212C208.793 106.157 209.254 106.066 209.735 105.939C210.211 105.808 210.692 105.654 211.18 105.475L213.212 104.755C214.187 104.398 215.156 104.113 216.119 103.901C217.082 103.688 218.024 103.566 218.945 103.535C219.867 103.504 220.755 103.581 221.611 103.767C222.473 103.949 223.287 104.257 224.054 104.693C225.165 105.342 225.849 106.066 226.105 106.865C226.36 107.658 226.185 108.49 225.579 109.362C224.972 110.226 223.926 111.087 222.44 111.945C220.966 112.796 219.456 113.407 217.911 113.778C216.372 114.145 214.853 114.249 213.355 114.092C211.857 113.927 210.437 113.474 209.093 112.733L212.829 110.576C213.483 110.906 214.169 111.099 214.889 111.158C215.608 111.209 216.333 111.144 217.064 110.962C217.795 110.774 218.494 110.487 219.159 110.103C219.813 109.725 220.286 109.343 220.577 108.955C220.874 108.564 220.987 108.193 220.916 107.843C220.844 107.493 220.589 107.191 220.149 106.937C219.739 106.7 219.272 106.572 218.749 106.551C218.232 106.527 217.644 106.592 216.984 106.747C216.33 106.898 215.59 107.119 214.764 107.411L212.276 108.27C210.362 108.943 208.561 109.307 206.873 109.362C205.185 109.416 203.67 109.053 202.326 108.27C201.215 107.636 200.543 106.908 200.311 106.088C200.086 105.264 200.264 104.417 200.846 103.545C201.429 102.674 202.386 101.854 203.717 101.085C205.072 100.303 206.487 99.7537 207.961 99.438C209.441 99.1189 210.877 99.0348 212.267 99.1858C213.658 99.3368 214.906 99.7211 216.012 100.339L212.312 102.475ZM237.335 103.048L230.862 106.785L212.603 96.2437L219.129 92.4761C220.966 91.4158 222.912 90.7141 224.969 90.3709C227.019 90.0244 229.082 90.0381 231.156 90.4121C233.237 90.7827 235.225 91.5153 237.121 92.6099C239.023 93.7079 240.298 94.8592 240.946 96.0636C241.6 97.2645 241.623 98.4621 241.017 99.6562C240.417 100.847 239.189 101.978 237.335 103.048ZM231.415 102.647L233.867 101.231C235.008 100.572 235.766 99.9015 236.14 99.2187C236.515 98.529 236.47 97.8239 236.006 97.1033C235.543 96.3758 234.63 95.6192 233.269 94.8334C231.92 94.0545 230.618 93.5329 229.364 93.2687C228.116 93.0011 226.901 92.9754 225.718 93.1915C224.535 93.4077 223.373 93.8452 222.232 94.504L219.771 95.9246L231.415 102.647ZM231.518 88.9987L228.335 87.1612L243.332 78.5039L246.515 80.3414L240.924 83.5686L256.001 92.2722L252.185 94.4751L237.109 85.7715L231.518 88.9987Z" fill="#B5B500"/>
<defs>
<filter id="filter0_f_1403_10162" x="0.350777" y="0.616402" width="389.64" height="270.908" filterUnits="userSpaceOnUse" color-interpolation-filters="sRGB">
<feFlood flood-opacity="0" result="BackgroundImageFix"/>
<feBlend mode="normal" in="SourceGraphic" in2="BackgroundImageFix" result="shape"/>
<feGaussianBlur stdDeviation="27.1781" result="effect1_foregroundBlur_1403_10162"/>
</filter>
<filter id="filter1_i_1403_10162" x="105.038" y="38.1758" width="151.552" height="88.3942" filterUnits="userSpaceOnUse" color-interpolation-filters="sRGB">
<feFlood flood-opacity="0" result="BackgroundImageFix"/>
<feBlend mode="normal" in="SourceGraphic" in2="BackgroundImageFix" result="shape"/>
<feColorMatrix in="SourceAlpha" type="matrix" values="0 0 0 0 0 0 0 0 0 0 0 0 0 0 0 0 0 0 127 0" result="hardAlpha"/>
<feOffset dy="0.905938"/>
<feGaussianBlur stdDeviation="2.71781"/>
<feComposite in2="hardAlpha" operator="arithmetic" k2="-1" k3="1"/>
<feColorMatrix type="matrix" values="0 0 0 0 1 0 0 0 0 1 0 0 0 0 1 0 0 0 0.25 0"/>
<feBlend mode="normal" in2="shape" result="effect1_innerShadow_1403_10162"/>
</filter>
<linearGradient id="paint0_linear_1403_10162" x1="89.5879" y1="0" x2="89.5879" y2="179.176" gradientUnits="userSpaceOnUse">
<stop stop-color="#F2F230"/>
<stop offset="1" stop-color="#F2F230"/>
</linearGradient>
</defs>
</svg>
