<svg width="24" height="24" viewBox="0 0 24 24" fill="none" xmlns="http://www.w3.org/2000/svg">
<path id="Vector" d="M0.121094 12.012C0.121094 18.5395 5.41429 23.8802 12.013 23.8802C18.5405 23.8802 23.8812 18.587 23.8812 11.9883C23.8812 5.46079 18.5642 0.120117 12.013 0.120117C5.43805 0.120117 0.121094 5.41332 0.121094 12.012ZM5.27188 17.8512V17.7562C6.34002 16.6881 7.40814 15.6911 8.52376 14.5993C8.78488 14.3145 9.09342 13.9821 9.40201 13.6973C11.0873 12.0358 13.5321 12.0358 15.2411 13.6973C16.5466 15.0028 17.8759 16.332 19.2051 17.6138C19.2289 17.685 19.3238 17.7562 19.3713 17.8037V17.8512C18.7779 17.8512 18.1132 17.8986 17.4486 17.8512C17.3299 17.8512 17.2113 17.8037 17.1638 17.685C16.1431 16.6881 15.1462 15.7149 14.1255 14.718C13.0574 13.6973 11.5857 13.6973 10.4939 14.718C9.49696 15.7149 8.52376 16.6881 7.45561 17.685C7.38441 17.8037 7.19452 17.8512 7.0521 17.8512C6.43497 17.8986 5.88901 17.8512 5.27188 17.8512ZM5.27188 6.22037V6.19661H7.19452C7.28946 6.19661 7.40814 6.26784 7.45564 6.31531C8.50002 7.31222 9.42575 8.30916 10.4227 9.23486C11.5857 10.3505 13.0574 10.3505 14.1967 9.23486C15.1937 8.30916 16.1431 7.31222 17.1163 6.36278C17.2587 6.26784 17.3774 6.19663 17.5436 6.19663H19.3713C19.2763 6.26784 19.2289 6.36278 19.2051 6.41023L15.075 10.398C13.5321 11.9171 11.0398 11.9171 9.49696 10.398C8.09651 8.99753 6.67233 7.64457 5.27188 6.22039V6.22037Z" fill="#1176A8"/>
</svg>
