<svg width="24" height="24" viewBox="0 0 24 24" fill="none" xmlns="http://www.w3.org/2000/svg">
<path id="Vector" d="M12.013 0.120117C5.36682 0.120117 0.121094 5.50826 0.121094 12.0002C0.121094 18.6345 5.50924 23.8802 12.0011 23.8802C18.6355 23.8802 23.8812 18.492 23.8812 12.0002C23.8812 5.43705 18.5642 0.120117 12.013 0.120117ZM4.5598 11.1575C4.34617 10.9439 4.51233 10.5641 4.79716 10.4692C4.93957 10.4217 5.05825 10.4454 5.17693 10.4454H16.7365C16.9739 10.4454 17.1875 10.5166 17.3774 10.6828L19.1339 12.4156C19.2289 12.5105 19.2763 12.558 19.3001 12.6767C19.3713 13.0327 19.3001 13.3175 18.9677 13.3413H7.07584C6.83848 13.3413 6.67233 13.3175 6.4587 13.1039L4.74966 11.4186C4.65474 11.3237 4.63101 11.2288 4.5598 11.1575ZM4.5598 8.57025C4.48859 8.30913 4.5598 8.14301 4.72595 7.97685L6.57738 6.03045C6.62485 5.98301 6.69606 5.95925 6.79101 5.8643H19.0627C19.49 6.17289 19.49 6.41025 19.1339 6.79003L17.3299 8.6652C17.1638 8.83135 17.0214 8.87882 16.8077 8.87882H5.05825C4.84463 8.87882 4.63103 8.83135 4.5598 8.57025ZM4.63101 17.1628C5.34309 16.5219 5.93649 15.8098 6.62485 15.1215C6.69606 15.0503 6.90969 15.0028 7.07584 15.0028H18.9203C19.1339 15.0503 19.2764 15.1215 19.3476 15.3351C19.395 15.5013 19.4188 15.6674 19.2289 15.8573L18.5168 16.5694C18.137 16.9492 17.7572 17.2815 17.3774 17.6613C17.1638 17.8749 16.9739 17.9699 16.7366 17.9699L5.17696 17.9224C5.10575 17.9224 5.01081 17.9699 4.9396 17.9224C4.58356 17.685 4.3462 17.4239 4.63103 17.1628H4.63101Z" fill="#D83AEB"/>
</svg>
