<svg width="24" height="24" viewBox="0 0 24 24" fill="none" xmlns="http://www.w3.org/2000/svg">
<path id="Vector" d="M18.4456 11.8221C18.4456 12.0429 18.156 12.2494 17.5792 12.4393C17.0024 12.6292 16.2191 12.7787 15.2293 12.8903C14.2395 13.0018 13.1642 13.0564 12.0011 13.0564C10.8381 13.0564 9.76281 13.0018 8.773 12.8903C7.78319 12.7787 6.99988 12.6292 6.42309 12.4393C5.84629 12.2494 5.55671 12.0429 5.55671 11.8221C5.55671 11.5373 6.01482 11.2833 6.93342 11.0626C7.85202 10.8418 9.01511 10.6994 10.4227 10.6353V12.4155C11.4349 12.463 12.4487 12.463 13.4609 12.4155V10.6353C14.9017 10.6994 16.0909 10.8418 17.0332 11.0626C17.9756 11.2833 18.4455 11.5373 18.4455 11.8221H18.4456ZM0.121094 12.0002C0.121094 9.85677 0.659894 7.85817 1.73517 6.00674C2.79618 4.21939 4.22037 2.79521 6.00772 1.73419C7.85915 0.658917 9.86013 0.120117 12.013 0.120117C14.1493 0.120117 16.1431 0.658917 17.9946 1.73419C19.7819 2.79521 21.2061 4.21939 22.2671 6.00674C23.3424 7.85817 23.8812 9.85677 23.8812 12.0002C23.8812 14.1436 23.3424 16.1422 22.2671 17.9936C21.2061 19.7809 19.7819 21.2051 17.9946 22.2661C16.1431 23.3414 14.1445 23.8802 12.0011 23.8802C9.85775 23.8802 7.85915 23.3414 6.00772 22.2661C4.22037 21.2051 2.79618 19.7809 1.73517 17.9936C0.659918 16.1422 0.121094 14.1436 0.121094 12.0002ZM4.72595 12.1544C4.72595 12.4559 4.97044 12.736 5.46179 12.9971C5.95312 13.2582 6.63198 13.4765 7.50309 13.6498C8.37421 13.8231 9.34741 13.9418 10.4227 14.0059V19.2516H13.4609V14.0059C14.5528 13.9584 15.5426 13.8445 16.428 13.6617C17.3133 13.4789 18.0112 13.2582 18.5168 12.9971C19.0223 12.736 19.2763 12.4559 19.2763 12.1544C19.2763 11.853 19.0223 11.5729 18.5168 11.3118C18.0112 11.0507 17.3133 10.8323 16.428 10.659C15.5426 10.4858 14.5528 10.3671 13.4609 10.303V8.83135H17.5911V5.79309H6.26881V8.83135H10.4227V10.303C9.34741 10.3671 8.37421 10.4881 7.50309 10.6709C6.63198 10.8537 5.95312 11.0697 5.46177 11.3237C4.97044 11.5776 4.72593 11.853 4.72593 12.1544H4.72595Z" fill="#27A07B"/>
</svg>
