<svg width="29" height="35" viewBox="0 0 29 35" fill="none" xmlns="http://www.w3.org/2000/svg">
<g opacity="0.97">
<path d="M11.3789 8.23582C11.0186 8.17893 11.0033 8.17221 11.173 8.14571C11.4979 8.09478 12.2653 8.16417 12.7941 8.29215C14.0285 8.59094 15.1519 9.3563 16.3509 10.7155L16.6695 11.0767L17.1251 11.0021C19.045 10.688 20.998 10.9376 22.6315 11.7059C23.0808 11.9173 23.7894 12.338 23.8779 12.4462C23.9061 12.4806 23.9579 12.7025 23.993 12.9391C24.1143 13.758 24.0536 14.3857 23.8076 14.8545C23.6737 15.1096 23.6663 15.1904 23.7563 15.4088C23.8281 15.583 24.0284 15.712 24.2267 15.7117C24.6327 15.7111 25.0696 15.043 25.272 14.1134L25.3525 13.7441L25.5118 13.9278C26.3856 14.9358 27.072 16.3105 27.1898 17.289L27.2205 17.544L27.0737 17.3121C26.8209 16.9131 26.5669 16.6413 26.2417 16.4222C25.6554 16.0273 25.0354 15.8929 23.3937 15.8048C21.911 15.7252 21.0718 15.5963 20.2396 15.32C18.8239 14.85 18.1102 14.2241 16.4284 11.9776C15.6815 10.9798 15.2198 10.4277 14.7605 9.98313C13.7169 8.97293 12.6915 8.44312 11.3789 8.23582Z" fill="url(#paint0_linear_2302_1740)"/>
<path d="M24.2118 10.4664C24.2491 9.79778 24.3382 9.3567 24.5172 8.95399C24.5881 8.79455 24.6545 8.66406 24.6647 8.66406C24.675 8.66406 24.6442 8.78174 24.5963 8.92555C24.4661 9.31645 24.4447 9.85104 24.5344 10.4731C24.6482 11.2623 24.7129 11.3762 25.5322 12.2287C25.9165 12.6286 26.3635 13.133 26.5255 13.3495L26.8202 13.7432L26.5255 13.4618C26.1652 13.1178 25.3366 12.4467 25.1535 12.3508C25.0309 12.2865 25.0126 12.2875 24.9369 12.3643C24.8671 12.435 24.8524 12.5412 24.8427 13.0433C24.8277 13.826 24.7229 14.3283 24.47 14.8306C24.3333 15.1023 24.3117 15.0443 24.4355 14.7377C24.5279 14.5088 24.5373 14.4081 24.5366 13.6504C24.5352 12.1282 24.3577 11.7622 23.3167 11.1352C23.0529 10.9764 22.6184 10.7473 22.3511 10.6262C22.0838 10.5051 21.8714 10.3995 21.8791 10.3916C21.9086 10.3618 22.9238 10.6634 23.3324 10.8234C23.9402 11.0615 24.0405 11.0923 24.1143 11.0636C24.1638 11.0444 24.1877 10.8977 24.2118 10.4664Z" fill="#FF007A"/>
<path d="M12.078 13.0663C11.3464 12.0409 10.8938 10.4687 10.9918 9.2934L11.0221 8.92969L11.1886 8.96065C11.5014 9.01873 12.0405 9.22307 12.293 9.37918C12.9858 9.80758 13.2857 10.3716 13.5909 11.82C13.6803 12.2442 13.7975 12.7243 13.8515 12.8869C13.9384 13.1485 14.2666 13.7595 14.5335 14.1564C14.7258 14.4422 14.5981 14.5776 14.1731 14.5386C13.5242 14.4789 12.6451 13.8613 12.078 13.0663Z" fill="#FF007A"/>
<path d="M23.3259 20.7002C19.9072 19.2987 18.7031 18.0822 18.7031 16.0297C18.7031 15.7276 18.7134 15.4805 18.7258 15.4805C18.7382 15.4805 18.8705 15.5802 19.0197 15.702C19.713 16.2681 20.4893 16.5099 22.6384 16.8291C23.903 17.017 24.6147 17.1687 25.2712 17.3904C27.3579 18.095 28.6489 19.5249 28.9567 21.4724C29.0462 22.0383 28.9937 23.0995 28.8487 23.6589C28.7342 24.1006 28.3848 24.8969 28.2921 24.9274C28.2664 24.9359 28.2412 24.8357 28.2346 24.6992C28.1994 23.9679 27.8365 23.256 27.2269 22.7226C26.5339 22.1163 25.6027 21.6335 23.3259 20.7002Z" fill="url(#paint1_linear_2302_1740)"/>
<path d="M20.9242 21.2863C20.8814 21.0268 20.8071 20.6953 20.7591 20.5498L20.6719 20.2852L20.8339 20.4703C21.0581 20.7265 21.2353 21.0545 21.3855 21.4912C21.5001 21.8245 21.513 21.9236 21.5121 22.4653C21.5113 22.997 21.4969 23.1085 21.3911 23.4085C21.2242 23.8816 21.0171 24.217 20.6696 24.5771C20.0451 25.2242 19.2422 25.5825 18.0836 25.7311C17.8821 25.7569 17.2952 25.8004 16.7791 25.8277C15.4785 25.8966 14.6226 26.0389 13.8535 26.3138C13.7429 26.3534 13.6441 26.3774 13.6341 26.3672C13.603 26.3357 14.1267 26.0178 14.5592 25.8057C15.1691 25.5066 15.7762 25.3434 17.1365 25.1127C17.8084 24.9988 18.5024 24.8605 18.6786 24.8055C20.3426 24.2861 21.1979 22.9456 20.9242 21.2863Z" fill="#FF007A"/>
<path d="M22.4921 24.1169C22.0379 23.1228 21.9336 22.1629 22.1824 21.2677C22.2091 21.1721 22.2519 21.0938 22.2776 21.0938C22.3034 21.0938 22.4106 21.1528 22.5158 21.2249C22.7251 21.3684 23.1449 21.6099 24.2633 22.2308C25.6589 23.0055 26.4546 23.6054 26.9958 24.2908C27.4697 24.891 27.7629 25.5746 27.9041 26.4083C27.984 26.8805 27.9372 28.0167 27.8182 28.4921C27.4429 29.9914 26.5708 31.169 25.3269 31.8562C25.1447 31.9569 24.9811 32.0396 24.9634 32.0399C24.9457 32.0403 25.0121 31.8684 25.1109 31.6579C25.5294 30.7673 25.577 29.901 25.2607 28.9368C25.067 28.3464 24.6721 27.626 23.8746 26.4084C22.9475 24.9929 22.7202 24.6161 22.4921 24.1169Z" fill="url(#paint2_linear_2302_1740)"/>
<path d="M9.64919 29.4842C10.9179 28.3936 12.4964 27.6188 13.9343 27.381C14.554 27.2784 15.5863 27.3191 16.1601 27.4686C17.08 27.7083 17.9027 28.2451 18.3306 28.8847C18.7489 29.5098 18.9283 30.0545 19.1151 31.2664C19.1887 31.7445 19.2689 32.2246 19.2932 32.3333C19.4334 32.9614 19.7065 33.4634 20.0447 33.7155C20.582 34.1159 21.5072 34.1409 22.4173 33.7794C22.5718 33.718 22.7059 33.6756 22.7154 33.6852C22.7484 33.7185 22.2901 34.031 21.9667 34.1954C21.5317 34.4166 21.1858 34.5022 20.7261 34.5022C19.8925 34.5022 19.2005 34.0704 18.623 33.1901C18.5094 33.0168 18.2539 32.4979 18.0554 32.0369C17.4457 30.621 17.1446 30.1897 16.4367 29.7176C15.8206 29.3069 15.0261 29.2333 14.4283 29.5317C13.6432 29.9236 13.4241 30.9452 13.9865 31.5926C14.2099 31.8499 14.6268 32.0718 14.9676 32.115C15.6051 32.1957 16.1531 31.7019 16.1531 31.0465C16.1531 30.6209 15.9924 30.3781 15.588 30.1923C15.0356 29.9385 14.4419 30.2351 14.4448 30.7635C14.446 30.9887 14.5423 31.1302 14.7641 31.2324C14.9064 31.2979 14.9097 31.3032 14.7937 31.2786C14.2869 31.1716 14.1681 30.5495 14.5756 30.1365C15.0649 29.6408 16.0765 29.8595 16.424 30.5363C16.5699 30.8205 16.5868 31.3866 16.4596 31.7285C16.1748 32.4936 15.3444 32.8959 14.502 32.6769C13.9286 32.5279 13.6951 32.3665 13.0036 31.6413C11.8021 30.3812 11.3356 30.137 9.60343 29.8617L9.27148 29.8089L9.64919 29.4842Z" fill="#FF007A"/>
<path fill-rule="evenodd" clip-rule="evenodd" d="M0.590937 1.25375C4.6035 6.21218 10.7896 13.9322 11.0968 14.3644C11.3503 14.7213 11.2549 15.0421 10.8205 15.2935C10.5789 15.4334 10.0822 15.575 9.83357 15.575C9.55232 15.575 9.23549 15.4371 9.00475 15.2143C8.84162 15.0568 8.1834 14.0561 6.66387 11.6555C5.5012 9.8187 4.52819 8.29495 4.50167 8.26946C4.4403 8.21043 4.44135 8.21244 6.54533 12.0453C7.86645 14.4521 8.31243 15.303 8.31243 15.4168C8.31243 15.6483 8.25045 15.7699 7.97 16.0884C7.50249 16.6194 7.29353 17.216 7.14267 18.4509C6.97349 19.8351 6.49796 20.8129 5.18005 22.4863C4.4086 23.4659 4.28234 23.6455 4.08769 24.0403C3.84247 24.5375 3.77505 24.816 3.74773 25.4438C3.71887 26.1077 3.77511 26.5365 3.97433 27.1712C4.14869 27.7269 4.3307 28.0937 4.79605 28.8276C5.19763 29.4608 5.42892 29.9315 5.42892 30.1156C5.42892 30.2621 5.45636 30.2622 6.07868 30.1192C7.56787 29.7768 8.77717 29.1746 9.45728 28.4366C9.87816 27.9798 9.97697 27.7275 9.98017 27.1016C9.98227 26.6922 9.96815 26.6064 9.85947 26.3709C9.68252 25.9875 9.36038 25.6688 8.65036 25.1746C7.72009 24.5271 7.32277 24.0059 7.21298 23.289C7.12293 22.7008 7.22741 22.2858 7.74204 21.1876C8.27475 20.0508 8.40674 19.5664 8.49604 18.4206C8.55371 17.6803 8.63358 17.3884 8.84248 17.1541C9.06033 16.9097 9.25646 16.827 9.79564 16.752C10.6747 16.6297 11.2344 16.3982 11.6945 15.9665C12.0936 15.5921 12.2606 15.2312 12.2863 14.688L12.3057 14.2764L12.0827 14.0116C11.275 13.0527 0.0500187 0.5 0.000307198 0.5C-0.0103074 0.5 0.255483 0.839211 0.590937 1.25375ZM5.8823 26.1949C6.06493 25.8657 5.96791 25.4423 5.66243 25.2355C5.37378 25.0401 4.92539 25.1322 4.92539 25.3868C4.92539 25.4645 4.96764 25.5211 5.06274 25.5709C5.22285 25.6548 5.23451 25.7492 5.10851 25.942C4.9809 26.1373 4.9912 26.309 5.13756 26.4257C5.37347 26.6137 5.70739 26.5103 5.8823 26.1949Z" fill="#FF007A"/>
<path fill-rule="evenodd" clip-rule="evenodd" d="M12.8607 16.965C12.4481 17.0941 12.047 17.5394 11.9227 18.0063C11.847 18.2912 11.89 18.7908 12.0035 18.9451C12.1868 19.1944 12.364 19.2601 12.8441 19.2566C13.7838 19.2499 14.6008 18.8396 14.6957 18.3265C14.7736 17.906 14.4148 17.3232 13.9206 17.0674C13.6655 16.9354 13.1232 16.883 12.8607 16.965ZM13.9593 17.8397C14.1043 17.6301 14.0408 17.4034 13.7944 17.2502C13.325 16.9584 12.6152 17.1998 12.6152 17.6513C12.6152 17.8761 12.9853 18.1212 13.3247 18.1212C13.5505 18.1212 13.8595 17.9842 13.9593 17.8397Z" fill="#FF007A"/>
</g>
<defs>
<linearGradient id="paint0_linear_2302_1740" x1="30.0149" y1="4.94098" x2="18.9761" y2="14.9429" gradientUnits="userSpaceOnUse">
<stop stop-color="white"/>
<stop offset="0.223958" stop-color="#FF92C6"/>
<stop offset="0.34375" stop-color="#FFBEDD"/>
<stop offset="0.713542" stop-color="#FF4CA1"/>
<stop offset="1" stop-color="#FF007A"/>
</linearGradient>
<linearGradient id="paint1_linear_2302_1740" x1="30.7822" y1="12.2816" x2="21.1568" y2="17.8227" gradientUnits="userSpaceOnUse">
<stop stop-color="white"/>
<stop offset="0.223958" stop-color="#FF92C6"/>
<stop offset="0.34375" stop-color="#FFBEDD"/>
<stop offset="0.713542" stop-color="#FF4CA1"/>
<stop offset="1" stop-color="#FF007A"/>
</linearGradient>
<linearGradient id="paint2_linear_2302_1740" x1="28.9633" y1="17.3874" x2="22.1781" y2="19.3167" gradientUnits="userSpaceOnUse">
<stop stop-color="white"/>
<stop offset="0.223958" stop-color="#FF92C6"/>
<stop offset="0.34375" stop-color="#FFBEDD"/>
<stop offset="0.713542" stop-color="#FF4CA1"/>
<stop offset="1" stop-color="#FF007A"/>
</linearGradient>
</defs>
</svg>
