<svg width="56" height="62" viewBox="0 0 56 62" fill="none" xmlns="http://www.w3.org/2000/svg">
<path id="Vector" d="M24.7984 0.636719C16.7297 0.636719 10.1537 7.20655 10.1538 15.2754C10.1539 21.7105 14.3656 27.1314 20.1527 29.0886C9.2439 31.2548 0.998031 40.8921 0.998047 52.4291C0.998049 54.0334 2.01271 55.326 3.33858 56.3496C4.66445 57.3732 6.42255 58.2284 8.54434 58.9613C12.7879 60.4271 18.4912 61.3667 24.7984 61.3667C28.4014 61.3667 31.8132 61.0588 34.8621 60.5237L36.3477 60.2643L36.3418 60.2466C37.9101 60.8805 39.6145 61.2488 41.4061 61.2488C48.8945 61.2488 55.0011 55.1479 55.0012 47.6596C55.0013 40.1709 48.8946 34.0704 41.4061 34.0704C40.9724 34.0704 40.562 34.1542 40.1386 34.1942L39.3427 33.5869C36.4866 31.3787 33.1033 29.8204 29.4264 29.0945C35.2226 27.1424 39.4429 21.7171 39.4429 15.2754C39.443 7.20655 32.867 0.636719 24.7984 0.636719ZM24.7984 3.65524C31.2356 3.65524 36.4245 8.83806 36.4244 15.2754C36.4243 21.7123 31.2355 26.9014 24.7984 26.9014C18.3612 26.9014 13.1724 21.7123 13.1723 15.2754C13.1722 8.83806 18.3611 3.65524 24.7984 3.65524ZM24.7984 31.6473C29.0281 31.6473 32.9101 32.9558 36.1886 35.1198C31.2809 37.1719 27.8168 42.0195 27.8169 47.6596C27.817 51.7039 29.6342 55.2958 32.4508 57.7881C30.0604 58.1168 27.5181 58.3482 24.7984 58.3482C18.7948 58.3482 13.3529 57.4288 9.5289 56.1079C7.61689 55.4474 6.11395 54.6797 5.18388 53.9619C4.25382 53.2438 4.01657 52.682 4.01657 52.4291C4.01655 40.934 13.3033 31.6473 24.7984 31.6473ZM41.4061 37.0889C47.2632 37.0889 51.9828 41.8021 51.9827 47.6596C51.9826 53.5167 47.2631 58.2303 41.4061 58.2303C35.5491 58.2303 30.8355 53.5167 30.8354 47.6596C30.8354 41.8021 35.549 37.0889 41.4061 37.0889ZM39.891 40.1192V46.1503H33.9011V49.1688H39.891V55.2118H42.9095V49.1688H48.917V46.1503H42.9095V40.1192H39.891Z" fill="url(#paint0_linear_105_2665)"/>
<defs>
<linearGradient id="paint0_linear_105_2665" x1="55.3063" y1="13.1774" x2="0.680213" y2="10.5474" gradientUnits="userSpaceOnUse">
<stop stop-color="#F2F230"/>
<stop offset="1" stop-color="#F2F230"/>
</linearGradient>
</defs>
</svg>
