<svg width="64" height="62" viewBox="0 0 64 62" fill="none" xmlns="http://www.w3.org/2000/svg">
<g id="Vector">
<mask id="path-1-outside-1_105_2670" maskUnits="userSpaceOnUse" x="-0.5" y="-0.363281" width="65" height="63" fill="black">
<rect fill="white" x="-0.5" y="-0.363281" width="65" height="63"/>
<path fill-rule="evenodd" clip-rule="evenodd" d="M40.133 0.63732C38.6673 0.615192 37.342 1.20771 36.189 1.79145C34.6518 2.56977 33.3005 3.32338 31.9183 3.32747C30.5362 3.33161 29.1788 2.58825 27.637 1.81903C26.0952 1.04982 24.2476 0.262301 22.1761 0.942826C20.1045 1.62335 19.0802 3.35269 18.2936 4.88682C17.507 6.42095 16.8572 7.82762 15.7414 8.64411C14.6256 9.46061 13.0912 9.65556 11.3922 9.94039C9.69312 10.2252 7.73583 10.6745 6.45952 12.4438C5.18321 14.2132 5.36976 16.2135 5.63424 17.9175C5.89887 19.6214 6.19965 21.1448 5.77637 22.4619C5.35314 23.7789 4.22351 24.8385 3.01621 26.0685C1.8089 27.2986 0.493594 28.8124 0.500023 30.9948C0.506592 33.1772 1.83136 34.6876 3.04591 35.9105C4.26045 37.1334 5.39205 38.1857 5.82303 39.5002C6.25403 40.8147 5.96713 42.3391 5.71272 44.0446C5.45831 45.7501 5.28313 47.7501 6.56983 49.5119C7.85656 51.2737 9.81239 51.713 11.5131 51.9877C13.2138 52.2625 14.7524 52.4487 15.8729 53.2585C16.9935 54.0684 17.6528 55.4715 18.4485 57.001C19.2442 58.5304 20.2766 60.2513 22.3522 60.9195C24.4277 61.5878 26.2716 60.794 27.8089 60.0157C29.3461 59.2374 30.6996 58.4817 32.0817 58.4776C33.4638 58.4735 34.8191 59.2189 36.3609 59.9882C37.9027 60.7574 39.7502 61.5449 41.8218 60.8644C43.8934 60.1838 44.9155 58.4545 45.7021 56.9204C46.4888 55.3862 47.1408 53.9774 48.2565 53.161C49.3723 52.3445 50.9088 52.1516 52.6079 51.8668C54.3069 51.5821 56.2621 51.1307 57.5384 49.3612C58.8147 47.5919 58.626 45.5937 58.3615 43.8897C58.0969 42.1858 57.8004 40.6623 58.2236 39.3453C58.6469 38.0283 59.7744 36.9687 60.9817 35.7386C62.189 34.5086 63.5064 32.9926 63.5 30.8102C63.4935 28.6279 62.1686 27.1196 60.9541 25.8967C59.7396 24.6738 58.6037 23.6215 58.1727 22.307C57.7417 20.9925 58.0329 19.466 58.2873 17.7605C58.5417 16.055 58.7169 14.055 57.4302 12.2932C56.1434 10.5314 54.1834 10.0921 52.4827 9.81734C50.782 9.54257 49.2455 9.35853 48.125 8.54864C47.0044 7.73877 46.3429 6.33565 45.5473 4.8062C44.7516 3.27675 43.7213 1.55592 41.6457 0.887665C41.1268 0.7206 40.6216 0.644702 40.133 0.63732ZM40.0587 2.80344C40.3612 2.80692 40.6659 2.85309 40.9795 2.95407C42.234 3.35799 42.8738 4.36768 43.6251 5.81182C44.3764 7.25597 45.1386 9.06969 46.8541 10.3095C48.5696 11.5494 50.5331 11.7049 52.1389 11.9644C53.7448 12.2238 54.8979 12.5119 55.6756 13.5768C56.4533 14.6416 56.3783 15.8319 56.1381 17.4423C55.8979 19.0526 55.4486 20.9693 56.1085 22.9817C56.7683 24.9941 58.265 26.2738 59.4118 27.4285C60.5586 28.5832 61.3237 29.4975 61.3276 30.8166C61.3321 32.1357 60.5751 33.0539 59.4352 34.2154C58.2952 35.3768 56.8031 36.6671 56.1552 38.6834C55.5073 40.6996 55.967 42.6139 56.2167 44.2228C56.466 45.8318 56.5511 47.0189 55.7797 48.0883C55.0082 49.1577 53.8516 49.4551 52.2473 49.724C50.643 49.9934 48.6833 50.1586 46.9752 51.4085C45.267 52.6585 44.5144 54.4768 43.7716 55.9254C43.0289 57.3739 42.3951 58.3866 41.143 58.798C39.8909 59.2093 38.7842 58.7688 37.3284 58.0427C35.8726 57.3164 34.1892 56.2967 32.0733 56.303C29.9574 56.3092 28.2803 57.3396 26.8288 58.0745C25.3773 58.8094 24.2729 59.2549 23.0184 58.851C21.7639 58.4471 21.1262 57.4395 20.375 55.9954C19.6237 54.5512 18.8614 52.7375 17.1459 51.4977C15.4304 50.2578 13.467 50.1023 11.8611 49.8428C10.2553 49.5834 9.09795 49.2953 8.32021 48.2304C7.54249 47.1656 7.61962 45.9753 7.85982 44.3649C8.10003 42.7546 8.54721 40.8358 7.88733 38.8234C7.22753 36.811 5.73087 35.5334 4.58406 34.3787C3.43724 33.224 2.67217 32.3097 2.66828 30.9906C2.66377 29.6715 3.42498 28.7533 4.56496 27.5918C5.70492 26.4304 7.19274 25.1401 7.84066 23.1238C8.48857 21.1075 8.02885 19.1933 7.77917 17.5844C7.52985 15.9754 7.44897 14.7884 8.22046 13.7189C8.9919 12.6495 10.1444 12.3521 11.7486 12.0832C13.3529 11.8143 15.3168 11.6486 17.025 10.3987C18.7331 9.14867 19.4837 7.32828 20.2264 5.87971C20.9692 4.43115 21.6008 3.42056 22.8529 3.00923C24.105 2.59791 25.2117 3.03608 26.6675 3.76239C28.1233 4.48871 29.8088 5.50833 31.9247 5.50208C34.0407 5.49579 35.7199 4.4676 37.1714 3.73269C38.26 3.1815 39.1514 2.79287 40.0587 2.80344ZM32.001 12.7578C22.0047 12.7578 13.8807 20.8946 13.8807 30.9036C13.8807 40.9126 22.0047 49.0494 32.001 49.0494C41.9974 49.0494 50.1235 40.9126 50.1235 30.9036C50.1235 20.8946 41.9974 12.7578 32.001 12.7578ZM32.001 14.9303C40.8214 14.9303 47.951 22.0669 47.951 30.9036C47.951 39.7403 40.8214 46.8769 32.001 46.8769C23.1806 46.8769 16.0532 39.7403 16.0532 30.9036C16.0532 22.0669 23.1806 14.9303 32.001 14.9303ZM38.8664 24.8423C38.5796 24.859 38.3111 24.9887 38.1196 25.2029L29.9007 34.2705L25.8676 29.9977C25.7699 29.8929 25.6525 29.8086 25.522 29.7494C25.3916 29.6902 25.2508 29.6574 25.1076 29.6529C24.9644 29.6483 24.8218 29.6722 24.6879 29.723C24.554 29.7738 24.4314 29.8505 24.3273 29.9489C24.1195 30.1471 23.9986 30.4194 23.9911 30.7065C23.9836 30.9935 24.09 31.2719 24.2871 31.4807L29.1221 36.6212C29.225 36.7305 29.3495 36.8173 29.4876 36.8761C29.6257 36.9349 29.7745 36.9645 29.9246 36.9629C30.0747 36.9613 30.2229 36.9286 30.3597 36.8669C30.4965 36.8052 30.6191 36.7158 30.7197 36.6044L39.7321 26.6627C39.8285 26.5566 39.9029 26.4324 39.951 26.2973C39.9992 26.1623 40.0201 26.019 40.0126 25.8758C40.0051 25.7326 39.9694 25.5923 39.9074 25.463C39.8454 25.3337 39.7584 25.218 39.6515 25.1225C39.5455 25.0264 39.4217 24.9522 39.2869 24.9042C39.1522 24.8561 39.0093 24.835 38.8664 24.8423Z"/>
</mask>
<path fill-rule="evenodd" clip-rule="evenodd" d="M40.133 0.63732C38.6673 0.615192 37.342 1.20771 36.189 1.79145C34.6518 2.56977 33.3005 3.32338 31.9183 3.32747C30.5362 3.33161 29.1788 2.58825 27.637 1.81903C26.0952 1.04982 24.2476 0.262301 22.1761 0.942826C20.1045 1.62335 19.0802 3.35269 18.2936 4.88682C17.507 6.42095 16.8572 7.82762 15.7414 8.64411C14.6256 9.46061 13.0912 9.65556 11.3922 9.94039C9.69312 10.2252 7.73583 10.6745 6.45952 12.4438C5.18321 14.2132 5.36976 16.2135 5.63424 17.9175C5.89887 19.6214 6.19965 21.1448 5.77637 22.4619C5.35314 23.7789 4.22351 24.8385 3.01621 26.0685C1.8089 27.2986 0.493594 28.8124 0.500023 30.9948C0.506592 33.1772 1.83136 34.6876 3.04591 35.9105C4.26045 37.1334 5.39205 38.1857 5.82303 39.5002C6.25403 40.8147 5.96713 42.3391 5.71272 44.0446C5.45831 45.7501 5.28313 47.7501 6.56983 49.5119C7.85656 51.2737 9.81239 51.713 11.5131 51.9877C13.2138 52.2625 14.7524 52.4487 15.8729 53.2585C16.9935 54.0684 17.6528 55.4715 18.4485 57.001C19.2442 58.5304 20.2766 60.2513 22.3522 60.9195C24.4277 61.5878 26.2716 60.794 27.8089 60.0157C29.3461 59.2374 30.6996 58.4817 32.0817 58.4776C33.4638 58.4735 34.8191 59.2189 36.3609 59.9882C37.9027 60.7574 39.7502 61.5449 41.8218 60.8644C43.8934 60.1838 44.9155 58.4545 45.7021 56.9204C46.4888 55.3862 47.1408 53.9774 48.2565 53.161C49.3723 52.3445 50.9088 52.1516 52.6079 51.8668C54.3069 51.5821 56.2621 51.1307 57.5384 49.3612C58.8147 47.5919 58.626 45.5937 58.3615 43.8897C58.0969 42.1858 57.8004 40.6623 58.2236 39.3453C58.6469 38.0283 59.7744 36.9687 60.9817 35.7386C62.189 34.5086 63.5064 32.9926 63.5 30.8102C63.4935 28.6279 62.1686 27.1196 60.9541 25.8967C59.7396 24.6738 58.6037 23.6215 58.1727 22.307C57.7417 20.9925 58.0329 19.466 58.2873 17.7605C58.5417 16.055 58.7169 14.055 57.4302 12.2932C56.1434 10.5314 54.1834 10.0921 52.4827 9.81734C50.782 9.54257 49.2455 9.35853 48.125 8.54864C47.0044 7.73877 46.3429 6.33565 45.5473 4.8062C44.7516 3.27675 43.7213 1.55592 41.6457 0.887665C41.1268 0.7206 40.6216 0.644702 40.133 0.63732ZM40.0587 2.80344C40.3612 2.80692 40.6659 2.85309 40.9795 2.95407C42.234 3.35799 42.8738 4.36768 43.6251 5.81182C44.3764 7.25597 45.1386 9.06969 46.8541 10.3095C48.5696 11.5494 50.5331 11.7049 52.1389 11.9644C53.7448 12.2238 54.8979 12.5119 55.6756 13.5768C56.4533 14.6416 56.3783 15.8319 56.1381 17.4423C55.8979 19.0526 55.4486 20.9693 56.1085 22.9817C56.7683 24.9941 58.265 26.2738 59.4118 27.4285C60.5586 28.5832 61.3237 29.4975 61.3276 30.8166C61.3321 32.1357 60.5751 33.0539 59.4352 34.2154C58.2952 35.3768 56.8031 36.6671 56.1552 38.6834C55.5073 40.6996 55.967 42.6139 56.2167 44.2228C56.466 45.8318 56.5511 47.0189 55.7797 48.0883C55.0082 49.1577 53.8516 49.4551 52.2473 49.724C50.643 49.9934 48.6833 50.1586 46.9752 51.4085C45.267 52.6585 44.5144 54.4768 43.7716 55.9254C43.0289 57.3739 42.3951 58.3866 41.143 58.798C39.8909 59.2093 38.7842 58.7688 37.3284 58.0427C35.8726 57.3164 34.1892 56.2967 32.0733 56.303C29.9574 56.3092 28.2803 57.3396 26.8288 58.0745C25.3773 58.8094 24.2729 59.2549 23.0184 58.851C21.7639 58.4471 21.1262 57.4395 20.375 55.9954C19.6237 54.5512 18.8614 52.7375 17.1459 51.4977C15.4304 50.2578 13.467 50.1023 11.8611 49.8428C10.2553 49.5834 9.09795 49.2953 8.32021 48.2304C7.54249 47.1656 7.61962 45.9753 7.85982 44.3649C8.10003 42.7546 8.54721 40.8358 7.88733 38.8234C7.22753 36.811 5.73087 35.5334 4.58406 34.3787C3.43724 33.224 2.67217 32.3097 2.66828 30.9906C2.66377 29.6715 3.42498 28.7533 4.56496 27.5918C5.70492 26.4304 7.19274 25.1401 7.84066 23.1238C8.48857 21.1075 8.02885 19.1933 7.77917 17.5844C7.52985 15.9754 7.44897 14.7884 8.22046 13.7189C8.9919 12.6495 10.1444 12.3521 11.7486 12.0832C13.3529 11.8143 15.3168 11.6486 17.025 10.3987C18.7331 9.14867 19.4837 7.32828 20.2264 5.87971C20.9692 4.43115 21.6008 3.42056 22.8529 3.00923C24.105 2.59791 25.2117 3.03608 26.6675 3.76239C28.1233 4.48871 29.8088 5.50833 31.9247 5.50208C34.0407 5.49579 35.7199 4.4676 37.1714 3.73269C38.26 3.1815 39.1514 2.79287 40.0587 2.80344ZM32.001 12.7578C22.0047 12.7578 13.8807 20.8946 13.8807 30.9036C13.8807 40.9126 22.0047 49.0494 32.001 49.0494C41.9974 49.0494 50.1235 40.9126 50.1235 30.9036C50.1235 20.8946 41.9974 12.7578 32.001 12.7578ZM32.001 14.9303C40.8214 14.9303 47.951 22.0669 47.951 30.9036C47.951 39.7403 40.8214 46.8769 32.001 46.8769C23.1806 46.8769 16.0532 39.7403 16.0532 30.9036C16.0532 22.0669 23.1806 14.9303 32.001 14.9303ZM38.8664 24.8423C38.5796 24.859 38.3111 24.9887 38.1196 25.2029L29.9007 34.2705L25.8676 29.9977C25.7699 29.8929 25.6525 29.8086 25.522 29.7494C25.3916 29.6902 25.2508 29.6574 25.1076 29.6529C24.9644 29.6483 24.8218 29.6722 24.6879 29.723C24.554 29.7738 24.4314 29.8505 24.3273 29.9489C24.1195 30.1471 23.9986 30.4194 23.9911 30.7065C23.9836 30.9935 24.09 31.2719 24.2871 31.4807L29.1221 36.6212C29.225 36.7305 29.3495 36.8173 29.4876 36.8761C29.6257 36.9349 29.7745 36.9645 29.9246 36.9629C30.0747 36.9613 30.2229 36.9286 30.3597 36.8669C30.4965 36.8052 30.6191 36.7158 30.7197 36.6044L39.7321 26.6627C39.8285 26.5566 39.9029 26.4324 39.951 26.2973C39.9992 26.1623 40.0201 26.019 40.0126 25.8758C40.0051 25.7326 39.9694 25.5923 39.9074 25.463C39.8454 25.3337 39.7584 25.218 39.6515 25.1225C39.5455 25.0264 39.4217 24.9522 39.2869 24.9042C39.1522 24.8561 39.0093 24.835 38.8664 24.8423Z" fill="url(#paint0_linear_105_2670)"/>
<path fill-rule="evenodd" clip-rule="evenodd" d="M40.133 0.63732C38.6673 0.615192 37.342 1.20771 36.189 1.79145C34.6518 2.56977 33.3005 3.32338 31.9183 3.32747C30.5362 3.33161 29.1788 2.58825 27.637 1.81903C26.0952 1.04982 24.2476 0.262301 22.1761 0.942826C20.1045 1.62335 19.0802 3.35269 18.2936 4.88682C17.507 6.42095 16.8572 7.82762 15.7414 8.64411C14.6256 9.46061 13.0912 9.65556 11.3922 9.94039C9.69312 10.2252 7.73583 10.6745 6.45952 12.4438C5.18321 14.2132 5.36976 16.2135 5.63424 17.9175C5.89887 19.6214 6.19965 21.1448 5.77637 22.4619C5.35314 23.7789 4.22351 24.8385 3.01621 26.0685C1.8089 27.2986 0.493594 28.8124 0.500023 30.9948C0.506592 33.1772 1.83136 34.6876 3.04591 35.9105C4.26045 37.1334 5.39205 38.1857 5.82303 39.5002C6.25403 40.8147 5.96713 42.3391 5.71272 44.0446C5.45831 45.7501 5.28313 47.7501 6.56983 49.5119C7.85656 51.2737 9.81239 51.713 11.5131 51.9877C13.2138 52.2625 14.7524 52.4487 15.8729 53.2585C16.9935 54.0684 17.6528 55.4715 18.4485 57.001C19.2442 58.5304 20.2766 60.2513 22.3522 60.9195C24.4277 61.5878 26.2716 60.794 27.8089 60.0157C29.3461 59.2374 30.6996 58.4817 32.0817 58.4776C33.4638 58.4735 34.8191 59.2189 36.3609 59.9882C37.9027 60.7574 39.7502 61.5449 41.8218 60.8644C43.8934 60.1838 44.9155 58.4545 45.7021 56.9204C46.4888 55.3862 47.1408 53.9774 48.2565 53.161C49.3723 52.3445 50.9088 52.1516 52.6079 51.8668C54.3069 51.5821 56.2621 51.1307 57.5384 49.3612C58.8147 47.5919 58.626 45.5937 58.3615 43.8897C58.0969 42.1858 57.8004 40.6623 58.2236 39.3453C58.6469 38.0283 59.7744 36.9687 60.9817 35.7386C62.189 34.5086 63.5064 32.9926 63.5 30.8102C63.4935 28.6279 62.1686 27.1196 60.9541 25.8967C59.7396 24.6738 58.6037 23.6215 58.1727 22.307C57.7417 20.9925 58.0329 19.466 58.2873 17.7605C58.5417 16.055 58.7169 14.055 57.4302 12.2932C56.1434 10.5314 54.1834 10.0921 52.4827 9.81734C50.782 9.54257 49.2455 9.35853 48.125 8.54864C47.0044 7.73877 46.3429 6.33565 45.5473 4.8062C44.7516 3.27675 43.7213 1.55592 41.6457 0.887665C41.1268 0.7206 40.6216 0.644702 40.133 0.63732ZM40.0587 2.80344C40.3612 2.80692 40.6659 2.85309 40.9795 2.95407C42.234 3.35799 42.8738 4.36768 43.6251 5.81182C44.3764 7.25597 45.1386 9.06969 46.8541 10.3095C48.5696 11.5494 50.5331 11.7049 52.1389 11.9644C53.7448 12.2238 54.8979 12.5119 55.6756 13.5768C56.4533 14.6416 56.3783 15.8319 56.1381 17.4423C55.8979 19.0526 55.4486 20.9693 56.1085 22.9817C56.7683 24.9941 58.265 26.2738 59.4118 27.4285C60.5586 28.5832 61.3237 29.4975 61.3276 30.8166C61.3321 32.1357 60.5751 33.0539 59.4352 34.2154C58.2952 35.3768 56.8031 36.6671 56.1552 38.6834C55.5073 40.6996 55.967 42.6139 56.2167 44.2228C56.466 45.8318 56.5511 47.0189 55.7797 48.0883C55.0082 49.1577 53.8516 49.4551 52.2473 49.724C50.643 49.9934 48.6833 50.1586 46.9752 51.4085C45.267 52.6585 44.5144 54.4768 43.7716 55.9254C43.0289 57.3739 42.3951 58.3866 41.143 58.798C39.8909 59.2093 38.7842 58.7688 37.3284 58.0427C35.8726 57.3164 34.1892 56.2967 32.0733 56.303C29.9574 56.3092 28.2803 57.3396 26.8288 58.0745C25.3773 58.8094 24.2729 59.2549 23.0184 58.851C21.7639 58.4471 21.1262 57.4395 20.375 55.9954C19.6237 54.5512 18.8614 52.7375 17.1459 51.4977C15.4304 50.2578 13.467 50.1023 11.8611 49.8428C10.2553 49.5834 9.09795 49.2953 8.32021 48.2304C7.54249 47.1656 7.61962 45.9753 7.85982 44.3649C8.10003 42.7546 8.54721 40.8358 7.88733 38.8234C7.22753 36.811 5.73087 35.5334 4.58406 34.3787C3.43724 33.224 2.67217 32.3097 2.66828 30.9906C2.66377 29.6715 3.42498 28.7533 4.56496 27.5918C5.70492 26.4304 7.19274 25.1401 7.84066 23.1238C8.48857 21.1075 8.02885 19.1933 7.77917 17.5844C7.52985 15.9754 7.44897 14.7884 8.22046 13.7189C8.9919 12.6495 10.1444 12.3521 11.7486 12.0832C13.3529 11.8143 15.3168 11.6486 17.025 10.3987C18.7331 9.14867 19.4837 7.32828 20.2264 5.87971C20.9692 4.43115 21.6008 3.42056 22.8529 3.00923C24.105 2.59791 25.2117 3.03608 26.6675 3.76239C28.1233 4.48871 29.8088 5.50833 31.9247 5.50208C34.0407 5.49579 35.7199 4.4676 37.1714 3.73269C38.26 3.1815 39.1514 2.79287 40.0587 2.80344ZM32.001 12.7578C22.0047 12.7578 13.8807 20.8946 13.8807 30.9036C13.8807 40.9126 22.0047 49.0494 32.001 49.0494C41.9974 49.0494 50.1235 40.9126 50.1235 30.9036C50.1235 20.8946 41.9974 12.7578 32.001 12.7578ZM32.001 14.9303C40.8214 14.9303 47.951 22.0669 47.951 30.9036C47.951 39.7403 40.8214 46.8769 32.001 46.8769C23.1806 46.8769 16.0532 39.7403 16.0532 30.9036C16.0532 22.0669 23.1806 14.9303 32.001 14.9303ZM38.8664 24.8423C38.5796 24.859 38.3111 24.9887 38.1196 25.2029L29.9007 34.2705L25.8676 29.9977C25.7699 29.8929 25.6525 29.8086 25.522 29.7494C25.3916 29.6902 25.2508 29.6574 25.1076 29.6529C24.9644 29.6483 24.8218 29.6722 24.6879 29.723C24.554 29.7738 24.4314 29.8505 24.3273 29.9489C24.1195 30.1471 23.9986 30.4194 23.9911 30.7065C23.9836 30.9935 24.09 31.2719 24.2871 31.4807L29.1221 36.6212C29.225 36.7305 29.3495 36.8173 29.4876 36.8761C29.6257 36.9349 29.7745 36.9645 29.9246 36.9629C30.0747 36.9613 30.2229 36.9286 30.3597 36.8669C30.4965 36.8052 30.6191 36.7158 30.7197 36.6044L39.7321 26.6627C39.8285 26.5566 39.9029 26.4324 39.951 26.2973C39.9992 26.1623 40.0201 26.019 40.0126 25.8758C40.0051 25.7326 39.9694 25.5923 39.9074 25.463C39.8454 25.3337 39.7584 25.218 39.6515 25.1225C39.5455 25.0264 39.4217 24.9522 39.2869 24.9042C39.1522 24.8561 39.0093 24.835 38.8664 24.8423Z" stroke="black" mask="url(#path-1-outside-1_105_2670)"/>
</g>
<defs>
<linearGradient id="paint0_linear_105_2670" x1="63.8559" y1="13.1369" x2="0.183669" y2="9.54902" gradientUnits="userSpaceOnUse">
<stop stop-color="#F2F230"/>
<stop offset="1" stop-color="#F2F230"/>
</linearGradient>
</defs>
</svg>
